<?xml version="1.0" encoding="utf-8"?>
<!-- Generator: Adobe Illustrator 17.1.0, SVG Export Plug-In . SVG Version: 6.00 Build 0)  -->
<!DOCTYPE svg PUBLIC "-//W3C//DTD SVG 1.1//EN" "http://www.w3.org/Graphics/SVG/1.1/DTD/svg11.dtd">
<svg version="1.1" id="Layer_1" xmlns="http://www.w3.org/2000/svg" xmlns:xlink="http://www.w3.org/1999/xlink" x="0px" y="0px"
	 viewBox="1354.1 0 1827.3 1417.3" enable-background="new 1354.1 0 1827.3 1417.3" xml:space="preserve">
<g id="video_x5F_icon">
	<g>
		<polygon fill="#986E99" points="3181.4,0 1354.1,0 1354.1,1417.3 1940.6,1417.3 2611.7,1417.3 3181.4,1417.3 		"/>
		<polygon fill="#6A3B6D" points="1936,919.8 2267.7,1417.3 3181.4,1417.3 3181.4,620.4 2459.7,288.7 2562.5,640.3 2306.1,1018.1 		
			"/>
		<circle display="none" fill="#FFFFFF" cx="2230.9" cy="671" r="410"/>
		<polygon display="none" fill="#3690C0" points="2126.4,446.8 2126.4,889.1 2409,668 		"/>
	</g>
</g>
<g id="Layer_1_1_">
</g>
<path fill="#FFFFFF" d="M2267.7,241.1c-231.9,0-419.2,187.3-419.2,419.2s187.3,419.2,419.2,419.2s419.2-187.3,419.2-419.2
	S2499.6,241.1,2267.7,241.1z"/>
<g>
	<g>
		<defs>
			<path id="SVGID_1_" d="M2267.7,241.1c-231.9,0-419.2,187.3-419.2,419.2s187.3,419.2,419.2,419.2s419.2-187.3,419.2-419.2
				S2499.6,241.1,2267.7,241.1z"/>
		</defs>
		<clipPath id="SVGID_2_">
			<use xlink:href="#SVGID_1_"  overflow="visible"/>
		</clipPath>
		<path clip-path="url(#SVGID_2_)" fill="#D1D3D4" d="M2227.8,929l196.6,196.6c0,0,313.3-147.4,311.7-542.1l-433-218l-35.3,49.1
			l-33.8,142.8L2227.8,929z"/>
	</g>
</g>
<g>
	<path fill="#986E99" d="M2341.4,929c-16.9,3.1-41.5,4.6-63,4.6c-21.5,0-44.5-1.5-63-4.6V664.9c0-26.1-9.2-46.1-36.9-46.1h-12.3
		c-4.6-13.8-4.6-27.6-4.6-43c0-13.8,1.5-30.7,4.6-44.5c24.6-3.1,52.2-4.6,70.6-4.6h16.9c52.2,0,87.5,36.9,87.5,95.2V929z
		 M2201.7,370.1c13.8-7.7,36.9-12.3,58.4-12.3s47.6,6.1,58.4,12.3c6.1,13.8,9.2,32.2,9.2,46.1c0,13.8-3.1,32.2-9.2,46.1
		c-12.3,6.1-36.9,12.3-58.4,12.3c-21.5,0-47.6-4.6-58.4-12.3c-6.1-13.8-9.2-32.2-9.2-46.1C2192.5,400.8,2195.5,383.9,2201.7,370.1z"
		/>
</g>
</svg>
