<?xml version="1.0" encoding="iso-8859-1"?>
<!-- Generator: Adobe Illustrator 17.0.0, SVG Export Plug-In . SVG Version: 6.00 Build 0)  -->
<!DOCTYPE svg PUBLIC "-//W3C//DTD SVG 1.1//EN" "http://www.w3.org/Graphics/SVG/1.1/DTD/svg11.dtd">
<svg version="1.1" xmlns="http://www.w3.org/2000/svg" xmlns:xlink="http://www.w3.org/1999/xlink" x="0px" y="0px"
	 width="60.698px" height="55.411px" viewBox="0 0 60.698 55.411" style="enable-background:new 0 0 60.698 55.411;"
	 xml:space="preserve">
<g id="like_x5F_icon">
	<polygon style="fill-rule:evenodd;clip-rule:evenodd;fill:#A14943;" points="60.698,8.88 38.278,8.88 28.178,0 18.198,8.88 0,8.88 
		0,55.411 60.698,55.411 	"/>
	<polygon style="fill:#7C3B35;" points="25.275,35.297 29.184,47.269 37.849,55.411 60.621,55.411 60.621,29.228 41.978,20.69 
		35.47,25.622 32.109,28.646 29.459,26.525 	"/>
	<path style="fill:#FFFFFF;" d="M37.48,19.635c-3.07,0-5.692,2.189-7.134,3.697c-1.442-1.509-4.06-3.697-7.128-3.697
		c-5.288,0-8.981,3.689-8.981,8.964c0,5.815,4.585,9.573,9.022,13.208c2.095,1.718,4.263,3.493,5.925,5.462
		c0.281,0.33,0.689,0.521,1.12,0.521h0.085c0.431,0,0.841-0.191,1.118-0.521c1.666-1.968,3.833-3.744,5.928-5.461
		c4.437-3.635,9.026-7.393,9.026-13.209C46.46,23.323,42.768,19.635,37.48,19.635z"/>
</g>
<g id="Layer_1">
</g>
</svg>
