<?xml version="1.0" encoding="iso-8859-1"?>
<!-- Generator: Adobe Illustrator 17.0.0, SVG Export Plug-In . SVG Version: 6.00 Build 0)  -->
<!DOCTYPE svg PUBLIC "-//W3C//DTD SVG 1.1//EN" "http://www.w3.org/Graphics/SVG/1.1/DTD/svg11.dtd">
<svg version="1.1" xmlns="http://www.w3.org/2000/svg" xmlns:xlink="http://www.w3.org/1999/xlink" x="0px" y="0px"
	 width="68.182px" height="52.792px" viewBox="0 0 68.182 52.792" style="enable-background:new 0 0 68.182 52.792;"
	 xml:space="preserve">
<g id="photo_x5F_icon">
	<polygon style="fill-rule:evenodd;clip-rule:evenodd;fill:#17AE97;" points="0,0 0,52.792 21.518,52.792 46.663,52.792 
		68.182,52.792 68.182,0 	"/>
	<polygon style="fill-rule:evenodd;clip-rule:evenodd;fill:#167768;" points="18.334,38.953 36.52,38.81 48.405,33.801 
		45.255,19.223 47.009,16.198 68.182,24.978 68.182,52.792 31.466,52.792 	"/>
	<path style="fill:#FFFFFF;" d="M35.469,20.556c-3.665,0-6.633,2.962-6.633,6.623c0,3.661,2.968,6.623,6.633,6.623
		c3.665,0,6.633-2.962,6.633-6.623C42.102,23.517,39.135,20.556,35.469,20.556z"/>
	<path style="fill:#FFFFFF;" d="M45.29,16.169h-1.275l-1.797-3.166c-0.313-0.55-0.988-0.963-1.925-0.963h-9.648
		c-0.978,0-1.611,0.413-1.925,0.963l-1.797,3.166h-2.481c0-0.758-0.619-1.376-1.378-1.376h-2.757c-0.759,0-1.378,0.618-1.378,1.376
		v0.253c-1.603,0.568-2.756,2.08-2.756,3.875V34.23c0,3.706,3.007,6.709,6.719,6.709H45.29c3.713,0,6.719-3.003,6.719-6.709V22.878
		C52.009,19.171,49.003,16.169,45.29,16.169z M21.686,20.985c-1.141,0-2.068-0.924-2.068-2.064c0-1.14,0.927-2.064,2.068-2.064
		s2.068,0.925,2.068,2.064C23.754,20.061,22.827,20.985,21.686,20.985z M35.469,36.892c-5.375,0-9.729-4.347-9.729-9.714
		c0-5.367,4.353-9.713,9.729-9.713c5.376,0,9.729,4.346,9.729,9.713C45.199,32.545,40.845,36.892,35.469,36.892z"/>
</g>
<g id="Layer_1">
</g>
</svg>
