<?xml version="1.0" encoding="utf-8"?>
<!-- Generator: Adobe Illustrator 17.1.0, SVG Export Plug-In . SVG Version: 6.00 Build 0)  -->
<!DOCTYPE svg PUBLIC "-//W3C//DTD SVG 1.1//EN" "http://www.w3.org/Graphics/SVG/1.1/DTD/svg11.dtd">
<svg version="1.1" id="Layer_1" xmlns="http://www.w3.org/2000/svg" xmlns:xlink="http://www.w3.org/1999/xlink" x="0px" y="0px"
	 viewBox="1343.3 0 1848.8 1417.3" enable-background="new 1343.3 0 1848.8 1417.3" xml:space="preserve">
<g id="write_x5F_icon">
	<g>
		<polygon fill="#986E99" points="1343.3,0 1343.3,1417.3 1893,1417.3 2567.1,1417.3 3192.1,1417.3 3192.1,0 		"/>
		<polygon fill="#6A3B6D" points="2217,890.6 1966.7,975.1 2316.9,1417.3 3190.6,1417.3 3190.6,466.8 2310.7,234.9 2266.2,302.5 
			2092.7,456.1 2217,760.1 		"/>
		<g display="none">
			<path display="inline" fill="#FFFFFF" d="M2599.4,337.8c3.1,16.9-7.7,46.1-16.9,63s-29.2,38.4-44.5,44.5
				c-27.6-3.1-63-16.9-95.2-36.9c-32.2-18.4-63-43-81.4-66c0-15.4,9.2-43,18.4-59.9c10.7-16.9,29.2-39.9,43-47.6
				c29.2,4.6,66,18.4,98.3,36.9C2553.3,291.8,2584,316.3,2599.4,337.8z"/>
			<polygon display="inline" fill="#FFFFFF" points="2025.1,1125.6 2012.8,933.6 2198.6,1041.1 			"/>
			<path display="inline" fill="#FFFFFF" d="M2210.9,1018.1l-184.3-107.5l313.3-537.4c0,0,30.7,27.6,87.5,61.4
				c56.8,32.2,98.3,47.6,98.3,47.6L2210.9,1018.1z"/>
		</g>
	</g>
</g>
<g id="Layer_1_1_">
</g>
<path fill="#FFFFFF" d="M2267.7,1165.5c32.2,0,56.8-24.6,56.8-53.7s0-53.7,0-53.7c156.6-13.8,259.5-96.7,259.5-230.3v-1.5
	c0-136.7-87.5-199.6-262.6-239.5V459.1c24.6,6.1,50.7,15.4,76.8,26.1c41.5,18.4,90.6,6.1,115.2-33.8c24.6-39.9,10.7-98.3-35.3-118.2
	c-46.1-20-96.7-35.3-152-41.5v-32.2c0-18.4-26.1-32.2-56.8-32.2c-32.2,0-56.8,13.8-56.8,30.7s0,30.7,0,30.7
	c-168.9,12.3-262.6,102.9-262.6,231.9v1.5c0,136.7,90.6,196.6,267.2,238v130.5c-43-6.1-84.5-21.5-125.9-43
	c-44.5-23-99.8-15.4-127.5,26.1c-27.6,39.9-16.9,98.3,29.2,119.8c66,32.2,142.8,53.7,218,61.4v55.3
	C2210.9,1140.9,2235.5,1165.5,2267.7,1165.5z M2319.9,777c56.8,16.9,73.7,32.2,73.7,63v1.5c0,32.2-23,50.7-73.7,56.8V777L2319.9,777
	z M2143.3,505.2v-1.5c0-29.2,21.5-50.7,75.2-55.3v118.2C2158.7,551.3,2143.3,534.4,2143.3,505.2z"/>
</svg>
