<?xml version="1.0" encoding="iso-8859-1"?>
<!-- Generator: Adobe Illustrator 17.0.0, SVG Export Plug-In . SVG Version: 6.00 Build 0)  -->
<!DOCTYPE svg PUBLIC "-//W3C//DTD SVG 1.1//EN" "http://www.w3.org/Graphics/SVG/1.1/DTD/svg11.dtd">
<svg version="1.1" xmlns="http://www.w3.org/2000/svg" xmlns:xlink="http://www.w3.org/1999/xlink" 
	 viewBox="0 0 386.127 53.764" preserveAspectRatio="none"
	 xml:space="preserve"> 
<style type="text/css">
</style>
<g id="title_x5F_banner">
	<g id="title_x5F_banner_1_">
		<polygon style="fill:#1E5066;" points="376.163,27.534 386.127,7.894 346.19,7.83 346.196,4.387 44.773,3.9 44.767,6.748 
			2.363,6.681 10.559,27.688 2.293,50.093 44.698,50.161 44.692,53.618 352.057,53.764 352.063,50.902 386.056,51.306 		"/>
		<polygon style="fill:#3690C0;" points="383.762,47.406 334.378,47.326 334.45,3.914 383.834,3.994 373.869,23.633 		"/>
		<polygon style="fill:#3690C0;" points="49.384,46.272 0,46.192 8.267,23.788 0.069,2.78 49.454,2.86 		"/>
		
			<rect x="42.439" y="0.249" transform="matrix(1 0.0016 -0.0016 1 0.041 -0.3173)" style="fill:#3690C0;" width="306.615" height="49.718"/>
		<polygon style="fill:#1E5066;" points="353.638,48.01 349.464,48.003 349.493,3.849 350.206,3.849 		"/>
		<polygon style="fill:#1E5066;" points="42.474,2.849 42.155,45.473 31.676,45.976 		"/>
		<rect x="127.812" y="9.267" style="fill:none;" width="119.122" height="42.672"/>
		
			<text transform="matrix(1 0 0 1 130.9238 35.7798)" style="display:none;fill:#FFFFFF; font-family:'Signika-Bold'; font-size:36.0239;">Sydney</text>
	</g>
</g>
<g id="Layer_1">
</g>
</svg>
