<?xml version="1.0" encoding="utf-8"?>
<!-- Generator: Adobe Illustrator 18.0.0, SVG Export Plug-In . SVG Version: 6.00 Build 0)  -->
<!DOCTYPE svg PUBLIC "-//W3C//DTD SVG 1.1//EN" "http://www.w3.org/Graphics/SVG/1.1/DTD/svg11.dtd">
<svg version="1.1" id="Layer_1" xmlns="http://www.w3.org/2000/svg" xmlns:xlink="http://www.w3.org/1999/xlink" x="0px" y="0px"
	 viewBox="0 0 119 92.3" enable-background="new 0 0 119 92.3" xml:space="preserve">
<g id="video_x5F_icon">
	<g>
		<polygon fill="#3690C0" points="119,0 0,0 0,92.3 38.2,92.3 81.9,92.3 119,92.3 		"/>
		<polygon fill="#1E5066" points="40.9,64.9 65.9,92.3 119,92.3 119,40.4 72.8,22 		"/>
		<circle fill="#FFFFFF" cx="57.1" cy="43.7" r="26.7"/>
		<polygon fill="#3690C0" points="50.3,29.1 50.3,57.9 68.7,43.5 		"/>
		<path fill="#D1D3D4" d="M50.3,57.9l10.4,12.2c0,0,14.6-1.5,20.7-15.3L68.7,43.5L50.3,57.9z"/>
	</g>
</g>
<g id="Layer_1_1_">
</g>
<g>
	<path fill="#FFFFFF" d="M81.5,62.3c0.3-0.1,0.7-0.2,1-0.2c0.7,0,0.9,0.2,1.1,1.1l0.5,3.1c0.1,0.8,0.3,1.8,0.3,2.4
		c0,0.2,0,0.2,0.1,0.2l1-6.4c0.4-0.1,0.9-0.1,1.2-0.1c0.4,0,0.9,0,1.2,0.1l0.9,6.3c0,0.2,0.1,0.2,0.1,0.2c0.1-0.6,0.2-1.8,0.4-2.6
		l0.7-4c0.3-0.1,0.6-0.1,0.9-0.1c0.3,0,0.6,0,0.9,0.1l0.1,0.1l-1.6,8c-0.4,0-1.1,0.1-1.6,0.1c-0.6,0-1.1-0.1-1.2-0.9L87.1,67
		c-0.1-0.9-0.3-2-0.3-2.8h-0.1c-0.1,0.8-0.2,1.8-0.4,2.8l-0.5,3.4c-0.5,0-1.1,0.1-1.6,0.1c-0.6,0-1.1-0.1-1.2-0.9L81.5,62.3z"/>
	<path fill="#FFFFFF" d="M97,70.5c-0.6,0-1-0.3-1.3-0.6c-0.4,0.4-1,0.7-1.8,0.7c-1.2,0-1.8-1-1.8-1.8c0-1.4,1.1-2.1,2.4-2.1
		c0.2,0,0.5,0,0.9,0v-0.2c0-0.5-0.2-0.8-0.8-0.8c-0.5,0-1.1,0.2-1.8,0.4c-0.3-0.3-0.4-0.8-0.5-1.3c0.8-0.3,2-0.5,2.7-0.5
		c1,0,2.1,0.5,2.1,2.1v2.4c0,0.3,0.1,0.6,0.3,0.8C97.5,69.9,97.3,70.3,97,70.5z M95.4,68.9v-1c-0.2,0-0.5,0-0.6,0
		c-0.5,0-0.8,0.3-0.8,0.8c0,0.3,0.2,0.6,0.6,0.6C94.8,69.2,95.1,69.1,95.4,68.9z"/>
	<path fill="#FFFFFF" d="M102.2,65.1c0,0.2,0,0.5-0.1,0.7l-1.4,0v2.8c0,0.4,0.2,0.6,0.5,0.6h0.7c0.1,0.3,0.2,0.6,0.2,0.9
		c0,0.1,0,0.3,0,0.4c-0.4,0.1-1.1,0.1-1.5,0.1c-1.1,0-1.6-0.5-1.6-1.7v-3.1l-0.9,0c-0.1-0.2-0.1-0.4-0.1-0.7c0-0.2,0-0.4,0.1-0.6
		l0.9,0v-0.7c0-0.8,0.3-1.1,1-1.1h0.7l0.1,0.1v1.7l1.4,0C102.1,64.6,102.2,64.8,102.2,65.1z"/>
	<path fill="#FFFFFF" d="M105.3,65.6c-0.6,0-0.7,0.5-0.7,1.8c0,1.3,0.4,1.7,1,1.7c0.5,0,0.9-0.2,1.3-0.5c0.3,0.2,0.6,0.7,0.7,1
		c-0.5,0.6-1.5,0.9-2.3,0.9c-1.7,0-2.7-1.2-2.7-3.2c0-2.3,1.4-3.2,2.7-3.2c1.3,0,2.3,0.8,2.3,2c0,0.6-0.4,0.9-0.9,0.9
		c-0.3,0-0.5,0-0.8-0.1C106,66.1,105.9,65.6,105.3,65.6z"/>
	<path fill="#FFFFFF" d="M113.8,68.9c0,0.5,0.1,0.9,0.3,1.2c-0.3,0.2-0.7,0.4-1.2,0.4c-0.8,0-1-0.4-1-1.2v-2.6
		c0-0.5-0.1-0.8-0.5-0.8c-0.3,0-0.6,0.1-0.9,0.4v4c-0.3,0-0.6,0.1-0.9,0.1c-0.3,0-0.6,0-0.9-0.1v-8.7l0.1-0.1h0.7c0.7,0,1,0.3,1,1.1
		V65c0.5-0.4,1-0.7,1.6-0.7c1.1,0,1.7,0.9,1.7,2.1V68.9z"/>
	<path fill="#FFFFFF" d="M75.2,76.5c0.4-0.1,0.8-0.1,1.1-0.1c0.3,0,0.8,0,1.2,0.2l0.1,0.1l-3,10.7c-0.6,0.1-1.4,0.1-2,0.1
		c-0.8,0-1.4-0.2-1.7-1.2l-2.7-9.7c0.4-0.2,1-0.4,1.5-0.4c0.8,0,1.2,0.4,1.4,1.3l1.2,4.6c0.3,0.9,0.4,2,0.6,2.9
		c0,0.2,0.1,0.2,0.2,0.2L75.2,76.5z"/>
	<path fill="#FFFFFF" d="M81.6,87.4c-0.4,0.1-0.8,0.1-1.3,0.1c-0.4,0-0.9,0-1.2-0.1v-5.3c0-0.5-0.2-0.9-0.8-0.9h-0.2
		C78,80.9,78,80.6,78,80.3c0-0.3,0-0.6,0.1-0.9c0.5,0,1.1-0.1,1.4-0.1h0.4c1.1,0,1.7,0.7,1.7,1.9V87.4z M78.8,76.2
		c0.3-0.1,0.8-0.3,1.2-0.3s0.9,0.1,1.2,0.3c0.1,0.3,0.2,0.6,0.2,0.9c0,0.3-0.1,0.6-0.2,0.9c-0.2,0.1-0.8,0.2-1.2,0.2
		s-0.9-0.1-1.2-0.2c-0.1-0.3-0.2-0.6-0.2-0.9C78.6,76.8,78.6,76.5,78.8,76.2z"/>
	<path fill="#FFFFFF" d="M86.2,79.3c0.6,0,1,0.1,1.5,0.4v-3.9l0.1-0.1h1c1,0,1.4,0.4,1.4,1.5v8c0,0.5,0.2,1,0.4,1.2
		c-0.1,0.4-0.4,1-0.8,1.3c-0.8,0-1.4-0.4-1.7-0.9c-0.6,0.6-1.3,1-2.2,1c-2,0-2.9-1.7-2.9-4.1C83,80.7,84.5,79.3,86.2,79.3z M87.7,85
		v-3.5c-0.4-0.2-0.7-0.4-1-0.4c-0.8,0-1.1,0.9-1.1,2.4c0,1.5,0.4,2.1,1,2.1C86.8,85.6,87.3,85.5,87.7,85z"/>
	<path fill="#FFFFFF" d="M94.1,84.2c0.1,0.9,0.4,1.5,1.4,1.5c0.7,0,1.4-0.2,2.1-0.5c0.4,0.4,0.6,1,0.7,1.5c-0.8,0.6-2,0.9-3.1,0.9
		c-2.8,0-3.6-2.1-3.6-4.2c0-2.4,1-4.3,3.6-4.3c2.1,0,3.3,1.5,3.3,3.4c0,0.7,0,1.1-0.2,1.6H94.1z M94.1,82.5h2.1v-0.2
		c0-0.7-0.3-1.4-1.1-1.4C94.5,81,94.2,81.4,94.1,82.5z"/>
	<path fill="#FFFFFF" d="M105.8,86.7c-0.7,0.7-1.6,0.9-2.5,0.9c-1,0-1.9-0.3-2.5-0.9c-0.8-0.8-1.2-1.9-1.2-3.3
		c0-1.4,0.3-2.4,1.2-3.3c0.7-0.7,1.5-0.9,2.5-0.9c1,0,1.9,0.3,2.5,0.9c0.8,0.8,1.2,1.9,1.2,3.3C106.9,84.8,106.6,85.8,105.8,86.7z
		 M103.2,85.8c1,0,1.1-1,1.1-2.4c0-1.3-0.1-2.4-1.1-2.4c-1,0-1.1,1-1.1,2.4C102.1,84.7,102.2,85.8,103.2,85.8z"/>
	<path fill="#FFFFFF" d="M108.4,85.2c0.7,0.4,1.6,0.7,2.2,0.7c0.6,0,0.9-0.2,0.9-0.6c0-0.3-0.2-0.5-0.7-0.7l-0.9-0.3
		c-1.1-0.4-2-1.1-2-2.4c0-1.6,1.2-2.6,3.1-2.6c1,0,2.2,0.3,2.9,0.7c0,0.6-0.3,1.4-0.7,1.7c-0.7-0.3-1.5-0.6-2.2-0.6
		c-0.4,0-0.7,0.2-0.7,0.5c0,0.3,0.2,0.4,0.6,0.6l1,0.4c1.2,0.4,2.1,1.2,2.1,2.6c0,1.6-1.3,2.6-3.2,2.6c-1.2,0-2.4-0.4-3.2-0.8
		C107.7,86.3,108.1,85.5,108.4,85.2z"/>
</g>
<g>
	<path fill="#FFFFFF" d="M117,2v88.3H2V2H117 M119,0H0v92.3h119V0L119,0z"/>
</g>
</svg>
