<?xml version="1.0" encoding="iso-8859-1"?>
<!-- Generator: Adobe Illustrator 17.0.0, SVG Export Plug-In . SVG Version: 6.00 Build 0)  -->
<!DOCTYPE svg PUBLIC "-//W3C//DTD SVG 1.1//EN" "http://www.w3.org/Graphics/SVG/1.1/DTD/svg11.dtd">
<svg version="1.1" xmlns="http://www.w3.org/2000/svg" xmlns:xlink="http://www.w3.org/1999/xlink" x="0px" y="0px"
	 width="120.424px" height="92.316px" viewBox="0 0 120.424 92.316" style="enable-background:new 0 0 120.424 92.316;"
	 xml:space="preserve">
<g id="write_x5F_icon">
	<g>
		<polygon style="fill-rule:evenodd;clip-rule:evenodd;fill:#F37651;" points="0,0 0,92.316 35.826,92.316 79.725,92.316 
			120.424,92.316 120.424,0 		"/>
		<polygon style="fill:#9F4C3A;" points="44.456,67.372 44.42,73.265 65.393,92.316 120.255,92.316 120.255,40.37 74.062,16.448 
			67.129,20.108 58.609,34.997 44.456,59.295 		"/>
		<g>
			<path style="fill:#FFFFFF;" d="M81.838,22.016c0.172,1.133-0.482,2.973-1.138,4.099c-0.62,1.066-1.864,2.484-2.935,2.892
				c-1.778-0.163-4.129-1.135-6.228-2.358c-2.1-1.223-4.104-2.787-5.28-4.345c-0.018-1.042,0.604-2.822,1.225-3.889
				c0.654-1.125,1.933-2.602,2.848-3.1c1.899,0.312,4.283,1.226,6.383,2.448C78.812,18.986,80.783,20.609,81.838,22.016z"/>
			<polygon style="fill:#FFFFFF;" points="44.42,73.265 43.641,60.757 55.684,67.772 			"/>
			<path style="fill:#FFFFFF;" d="M56.5,66.311l-12.044-7.015L64.84,24.301c0,0,1.979,1.816,5.662,3.963
				c3.685,2.146,6.381,3.051,6.381,3.051L56.5,66.311z"/>
		</g>
	</g>
</g>
<g id="Layer_1">
</g>
</svg>
