<?xml version="1.0" encoding="utf-8"?>
<!-- Generator: Adobe Illustrator 17.1.0, SVG Export Plug-In . SVG Version: 6.00 Build 0)  -->
<!DOCTYPE svg PUBLIC "-//W3C//DTD SVG 1.1//EN" "http://www.w3.org/Graphics/SVG/1.1/DTD/svg11.dtd">
<svg version="1.1" id="Layer_1" xmlns="http://www.w3.org/2000/svg" xmlns:xlink="http://www.w3.org/1999/xlink" x="0px" y="0px"
	 viewBox="1343.3 0 1848.8 1417.3" enable-background="new 1343.3 0 1848.8 1417.3" xml:space="preserve">
<g id="write_x5F_icon">
	<g>
		<polygon fill="#F37651" points="1343.3,0 1343.3,1417.3 1893,1417.3 2567.1,1417.3 3192.1,1417.3 3192.1,0 		"/>
		<polygon fill="#9F4C3A" points="2249.3,979.7 2154.1,1159.3 2280,1417.3 3190.6,1417.3 3190.6,620.4 2574.8,356.2 2478.1,453 
			2476.6,687.9 2152.5,726.3 		"/>
		<g display="none">
			<path display="inline" fill="#FFFFFF" d="M2599.4,337.8c3.1,16.9-7.7,46.1-16.9,63s-29.2,38.4-44.5,44.5
				c-27.6-3.1-63-16.9-95.2-36.9c-32.2-18.4-63-43-81.4-66c0-15.4,9.2-43,18.4-59.9c10.7-16.9,29.2-39.9,43-47.6
				c29.2,4.6,66,18.4,98.3,36.9C2553.3,291.8,2584,316.3,2599.4,337.8z"/>
			<polygon display="inline" fill="#FFFFFF" points="2025.1,1125.6 2012.8,933.6 2198.6,1041.1 			"/>
			<path display="inline" fill="#FFFFFF" d="M2210.9,1018.1l-184.3-107.5l313.3-537.4c0,0,30.7,27.6,87.5,61.4
				c56.8,32.2,98.3,47.6,98.3,47.6L2210.9,1018.1z"/>
		</g>
	</g>
</g>
<g id="Layer_1_1_">
</g>
<g display="none">
	<path display="inline" fill="#FFFFFF" d="M2002.1,809.2c46.1,110.6,153.6,182.7,273.3,182.7c38.4,0,76.8-7.7,113.6-23
		c150.5-63,222.7-236.5,159.7-387c-46.1-110.6-153.6-182.7-273.3-182.7c-38.4,0-76.8,7.7-113.6,23
		c-73.7,30.7-130.5,87.5-159.7,159.7C1971.4,655.7,1971.4,735.5,2002.1,809.2z"/>
	<path display="inline" fill="#FFFFFF" d="M2042,416.1c3.1,3.1,7.7,4.6,12.3,4.6c3.1,0,4.6,0,7.7-1.5l168.9-70.6
		c6.1-3.1,10.7-9.2,12.3-15.4c1.5-7.7-1.5-13.8-7.7-18.4l-142.8-107.5c-6.1-4.6-12.3-4.6-18.4-3.1c-6.1,3.1-10.7,7.7-12.3,15.4
		l-27.6,178.1C2034.3,405.4,2035.8,411.5,2042,416.1z"/>
	<path display="inline" fill="#FFFFFF" d="M2620.9,651.1c3.1,6.1,9.2,10.7,15.4,12.3c1.5,0,1.5,0,3.1,0c6.1,0,12.3-3.1,15.4-7.7
		l107.5-142.8c4.6-6.1,4.6-12.3,3.1-18.4c-3.1-6.1-7.7-10.7-15.4-12.3l-178.1-26.1c-7.7-1.5-13.8,1.5-18.4,7.7
		c-4.6,6.1-4.6,12.3-3.1,20L2620.9,651.1z"/>
	<path display="inline" fill="#FFFFFF" d="M2488.8,972l-168.9,70.6c-6.1,3.1-10.7,9.2-12.3,15.4c-1.5,7.7,1.5,13.8,7.7,18.4
		l142.8,107.5c3.1,3.1,7.7,4.6,12.3,4.6c3.1,0,4.6,0,7.7-1.5c6.1-3.1,10.7-7.7,12.3-15.4l26.1-176.6c1.5-7.7-1.5-13.8-7.7-18.4
		C2502.7,970.5,2495,968.9,2488.8,972z"/>
	<path display="inline" fill="#FFFFFF" d="M1800.9,910.6l176.6,26.1c1.5,0,1.5,0,3.1,0l0,0c10.7,0,20-9.2,20-20
		c0-3.1-1.5-6.1-3.1-9.2l-69.1-167.4c-3.1-6.1-9.2-10.7-15.4-12.3c-7.7-1.5-13.8,1.5-18.4,7.7l-107.5,142.8
		c-4.6,6.1-4.6,12.3-3.1,18.4C1788.6,904.4,1793.2,909.1,1800.9,910.6z"/>
	<path display="inline" fill="#FFFFFF" d="M2319.9,348.6l168.9,70.6c3.1,1.5,4.6,1.5,7.7,1.5c4.6,0,9.2-1.5,12.3-4.6
		c6.1-4.6,7.7-10.7,7.7-18.4l-26.1-176.6c-1.5-6.1-6.1-12.3-12.3-15.4c-6.1-3.1-13.8-1.5-18.4,3.1l-142.8,107.5
		c-6.1,4.6-9.2,10.7-7.7,18.4C2309.2,340.9,2313.8,347,2319.9,348.6z"/>
	<path display="inline" fill="#FFFFFF" d="M2654.7,735.5c-4.6-6.1-10.7-9.2-18.4-7.7c-7.7,1.5-12.3,6.1-15.4,12.3l-70.6,168.9
		c-3.1,6.1-1.5,13.8,3.1,20c3.1,4.6,9.2,7.7,15.4,7.7c1.5,0,1.5,0,3.1,0l176.6-26.1c6.1-1.5,12.3-6.1,15.4-12.3
		c3.1-6.1,1.5-13.8-3.1-18.4L2654.7,735.5z"/>
	<path display="inline" fill="#FFFFFF" d="M2230.9,1042.6L2062,972c-6.1-3.1-13.8-1.5-20,3.1c-6.1,4.6-7.7,10.7-7.7,18.4l26.1,176.6
		c1.5,6.1,6.1,12.3,12.3,15.4c3.1,1.5,4.6,1.5,7.7,1.5c4.6,0,7.7-1.5,12.3-4.6l142.8-107.5c6.1-4.6,9.2-10.7,7.7-18.4
		C2241.6,1050.3,2237,1044.2,2230.9,1042.6z"/>
	<path display="inline" fill="#FFFFFF" d="M1894.6,655.7c3.1,4.6,9.2,7.7,15.4,7.7c1.5,0,1.5,0,3.1,0c7.7-1.5,12.3-6.1,15.4-12.3
		l70.6-168.9c3.1-6.1,1.5-13.8-3.1-20c-4.6-6.1-10.7-7.7-18.4-7.7l-176.6,26.1c-6.1,1.5-12.3,6.1-15.4,12.3
		c-3.1,6.1-1.5,13.8,3.1,18.4L1894.6,655.7z"/>
</g>
<path fill="#FFFFFF" d="M2382.9,1078c0,12.3-10.7,23-23,23h-182.7c-12.3,0-23-10.7-23-23s10.7-23,23-23h182.7
	C2372.1,1056.5,2382.9,1065.7,2382.9,1078z M2359.8,1128.6h-182.7c-15.4,0-26.1,13.8-21.5,30.7c3.1,9.2,12.3,15.4,23,15.4l0,0
	c13.8,0,24.6,7.7,30.7,20l0,0c7.7,15.4,24.6,26.1,41.5,26.1h33.8c18.4,0,33.8-10.7,41.5-26.1l0,0c6.1-12.3,18.4-20,30.7-20l0,0
	c10.7,0,20-6.1,23-15.4C2386,1142.5,2373.7,1128.6,2359.8,1128.6z M2267.7,365.5c12.3,0,23-10.7,23-23v-92.1c0-12.3-10.7-23-23-23
	s-23,10.7-23,23v92.1C2244.7,354.7,2255.4,365.5,2267.7,365.5z M2025.1,453c4.6,4.6,10.7,6.1,16.9,6.1s12.3-1.5,16.9-6.1
	c9.2-9.2,9.2-23,0-32.2l-64.5-64.5c-9.2-9.2-23-9.2-32.2,0c-9.2,9.2-9.2,23,0,32.2L2025.1,453z M1969.8,663.4c0-12.3-10.7-23-23-23
	h-92.1c-12.3,0-23,10.7-23,23c0,12.3,10.7,23,23,23h92.1C1960.6,686.4,1969.8,675.6,1969.8,663.4z M2025.1,873.7l-64.5,64.5
	c-9.2,9.2-9.2,23,0,32.2c4.6,4.6,10.7,6.1,16.9,6.1s12.3-1.5,16.9-6.1l64.5-64.5c9.2-9.2,9.2-23,0-32.2
	C2048.1,864.5,2034.3,864.5,2025.1,873.7z M2510.3,873.7c-9.2-9.2-23-9.2-32.2,0c-9.2,9.2-9.2,23,0,32.2l64.5,64.5
	c4.6,4.6,10.7,6.1,16.9,6.1c6.1,0,12.3-1.5,16.9-6.1c9.2-9.2,9.2-23,0-32.2L2510.3,873.7z M2679.2,640.3h-92.1
	c-12.3,0-23,10.7-23,23c0,12.3,10.7,23,23,23h92.1c12.3,0,23-10.7,23-23C2702.3,651.1,2691.5,640.3,2679.2,640.3z M2495,459.1
	c6.1,0,12.3-1.5,16.9-6.1l64.5-64.5c9.2-9.2,9.2-23,0-32.2c-9.2-9.2-23-9.2-32.2,0l-64.5,64.5c-9.2,9.2-9.2,23,0,32.2
	C2482.7,457.6,2488.8,459.1,2495,459.1z M2382.9,1005.8c0,12.3-10.7,23-23,23h-182.7c-12.3,0-23-10.7-23-23c0-12.3,9.2-21.5,21.5-23
	c-13.8-129-147.4-156.6-147.4-308.6c0-132.1,107.5-239.5,239.5-239.5s239.5,107.5,239.5,239.5c0,152-133.6,179.7-147.4,308.6
	C2372.1,984.3,2382.9,993.5,2382.9,1005.8z M2261.6,514.4c1.5-18.4-1.5-46.1-69.1-24.6c-58.4,23-109,81.4-118.2,135.1
	c-9.2,50.7,49.1,43,55.3,39.9c7.7-4.6,16.9-7.7,20-18.4c13.8-50.7,53.7-90.6,101.3-110.6C2260,532.8,2260,523.6,2261.6,514.4z"/>
</svg>
