<?xml version="1.0" encoding="utf-8"?>
<!-- Generator: Adobe Illustrator 18.0.0, SVG Export Plug-In . SVG Version: 6.00 Build 0)  -->
<!DOCTYPE svg PUBLIC "-//W3C//DTD SVG 1.1//EN" "http://www.w3.org/Graphics/SVG/1.1/DTD/svg11.dtd">
<svg version="1.1" id="Layer_1" xmlns="http://www.w3.org/2000/svg" xmlns:xlink="http://www.w3.org/1999/xlink" x="0px" y="0px"
	 viewBox="0 0 119 92.3" enable-background="new 0 0 119 92.3" xml:space="preserve">
<polygon fill="#F37651" points="0,0 0,92.3 37.6,92.3 81.5,92.3 119,92.3 119,0 "/>
<polygon fill="#9F4C3A" points="119,92.3 119,36.5 82.7,10.9 74.8,29.5 44.5,70 50.1,80.5 71.8,92.3 "/>
<polygon display="none" fill="#FFFFFF" points="51.5,65.6 44.4,73 42.2,59.1 "/>
<polygon display="none" fill="#FFFFFF" points="24.5,42.5 91.8,20.6 42.1,54.8 "/>
<g display="none">
	<polygon display="inline" fill="#FFFFFF" points="94.5,22.2 67.1,71.3 44.5,56.6 	"/>
</g>
<g>
	<polygon fill="#FFFFFF" points="47.5,16.7 47.8,19.9 46.2,22.8 46.2,29.2 54.8,34.2 54.9,34.7 44.2,29.7 40.2,16.6 42,15.6 
		42.3,12.1 38.4,11.7 37.2,14.1 37.6,16.7 40.8,34.7 48.9,40.3 46.3,58.4 37,71.9 37.5,74.4 46.6,75.6 46,80.5 50.1,80.5 50.3,72.2 
		45.6,71 55.4,66.3 60.8,66.3 71.1,73.6 64.8,74.4 66.2,82.2 69.7,81.5 69,77.4 76.4,77.4 76.4,72 69.8,58.6 72.9,56.2 66.7,40.4 
		76.4,34.7 83,15.7 84.1,14.1 82.7,10.9 78.9,11.3 78.5,13.8 80.3,15.4 71.7,29.6 60.6,34.2 66.7,29 68.8,28.7 70.9,25.6 69.6,23.6 
		70.2,18.9 68,15.2 64.7,12.1 59.1,11.9 59.1,10.1 54,12.3 47.8,12.2 	"/>
</g>
</svg>
