<?xml version="1.0" encoding="utf-8"?>
<!-- Generator: Adobe Illustrator 18.0.0, SVG Export Plug-In . SVG Version: 6.00 Build 0)  -->
<!DOCTYPE svg PUBLIC "-//W3C//DTD SVG 1.1//EN" "http://www.w3.org/Graphics/SVG/1.1/DTD/svg11.dtd">
<svg version="1.1" id="Layer_1" xmlns="http://www.w3.org/2000/svg" xmlns:xlink="http://www.w3.org/1999/xlink" x="0px" y="0px"
	 viewBox="0 0 119 92.3" enable-background="new 0 0 119 92.3" xml:space="preserve">
<polygon fill="#F37651" points="0,0 0,92.3 37.6,92.3 81.5,92.3 119,92.3 119,0 "/>
<polygon fill="#9F4C3A" points="119,92.3 119,50.3 78.1,26 77.8,33.3 64.7,34.6 64.3,56 50.5,55.2 38.6,67.9 56.8,92.3 "/>
<polygon display="none" fill="#FFFFFF" points="51.5,65.6 44.4,73 42.2,59.1 "/>
<polygon display="none" fill="#FFFFFF" points="24.5,42.5 91.8,20.6 42.1,54.8 "/>
<g display="none">
	<polygon display="inline" fill="#FFFFFF" points="94.5,22.2 67.1,71.3 44.5,56.6 	"/>
</g>
<g>
	<path fill="#FFFFFF" d="M64.7,34.6c1.4,3.5,2.6,7.4,3.2,11.6c0.5,3.2,0.8,6.2,0.9,9.1c6.5-0.9,12.1-1.2,16.4-1.2
		c0.7-2.5,1.1-5.1,1.1-7.9c0-7.8-3.1-14.9-8.2-20.1C75.3,28.4,70.6,31.8,64.7,34.6z"/>
	<path fill="#FFFFFF" d="M50.3,34.3c2.9-0.4,5.7-1.2,8.3-2.1c-3.6-7.1-7.9-12.1-9.3-13.6C41.1,21,34.4,27,31.1,34.7
		C36,35.2,42.7,35.4,50.3,34.3z"/>
	<path fill="#FFFFFF" d="M62.8,30.4C67.9,28,72,25.1,74.7,23c-4.8-3.6-10.7-5.7-17.2-5.7c-1.1,0-2.1,0.1-3.1,0.2
		C56.6,20.2,59.9,24.6,62.8,30.4z"/>
	<path fill="#FFFFFF" d="M68.9,59.8c0,5.7-0.6,10.3-1.1,13.3c6.9-2.6,12.5-7.9,15.7-14.5C79.5,58.6,74.5,59,68.9,59.8z"/>
	<path fill="#FFFFFF" d="M38.6,67.9c4.2-3.1,13.9-9.4,25.7-11.9c-0.1-2.9-0.4-5.9-0.9-9.2c-0.6-3.7-1.6-7.3-3-10.5
		c-3,1.1-6.2,2-9.6,2.5c-4.3,0.6-8.3,0.9-11.9,0.9c-3.6,0-6.8-0.2-9.4-0.5c-0.6,2.3-0.9,4.6-0.9,7.1C28.7,54.8,32.5,62.6,38.6,67.9z
		"/>
	<path fill="#FFFFFF" d="M64.4,60.6c-9.6,2.2-17.7,7.2-21.9,10.1C46.8,73.4,52,75,57.5,75c1.9,0,3.7-0.2,5.4-0.5
		C63.4,72.1,64.3,67.2,64.4,60.6z"/>
</g>
</svg>
