<?xml version="1.0" encoding="utf-8"?>
<!-- Generator: Adobe Illustrator 18.0.0, SVG Export Plug-In . SVG Version: 6.00 Build 0)  -->
<!DOCTYPE svg PUBLIC "-//W3C//DTD SVG 1.1//EN" "http://www.w3.org/Graphics/SVG/1.1/DTD/svg11.dtd">
<svg version="1.1" id="Layer_1" xmlns="http://www.w3.org/2000/svg" xmlns:xlink="http://www.w3.org/1999/xlink" x="0px" y="0px"
	 viewBox="0 0 120.4 92.3" enable-background="new 0 0 120.4 92.3" xml:space="preserve">
<g id="learn_x5F_icon">
	<g>
		<polygon fill="#986E99" points="120.4,0 0,0 0,92.3 35.1,92.3 79,92.3 120.4,92.3 		"/>
		<polygon fill="#6A3B6D" points="47.4,69.7 66.5,92.3 120.4,92.3 120.4,44 92,24.4 47.5,55.1 53.7,63.1 		"/>
	</g>
</g>
<g display="none">
	<path display="inline" fill="#FFFFFF" d="M67.1,35.5c1.3,3.2,2.4,6.8,3,10.6c0.4,2.9,0.7,5.7,0.8,8.4c6-0.8,11.1-1.1,15.1-1.1
		c0.7-2.3,1-4.7,1-7.2c0-7.2-2.9-13.7-7.5-18.5C76.9,29.8,72.5,32.9,67.1,35.5z"/>
	<path display="inline" fill="#FFFFFF" d="M53.8,35.3c2.7-0.4,5.3-1.1,7.7-2c-3.3-6.5-7.3-11.2-8.5-12.5
		c-7.5,2.2-13.7,7.7-16.8,14.9C40.7,36.1,46.8,36.3,53.8,35.3z"/>
	<path display="inline" fill="#FFFFFF" d="M65.4,31.7c4.7-2.2,8.5-4.9,10.9-6.8c-4.4-3.3-9.9-5.2-15.8-5.2c-1,0-1.9,0.1-2.9,0.2
		C59.6,22.2,62.7,26.4,65.4,31.7z"/>
	<path display="inline" fill="#FFFFFF" d="M71,58.7c0,5.2-0.5,9.5-1,12.2c6.4-2.4,11.5-7.2,14.5-13.3C80.7,57.6,76.1,57.9,71,58.7z"
		/>
	<path display="inline" fill="#FFFFFF" d="M43.1,66.1c3.9-2.8,12.8-8.6,23.6-10.9c-0.1-2.6-0.4-5.5-0.8-8.4
		c-0.5-3.4-1.5-6.7-2.7-9.7c-2.7,1-5.7,1.8-8.8,2.3c-4,0.6-7.7,0.8-11,0.8c-3.3,0-6.2-0.2-8.7-0.5c-0.5,2.1-0.8,4.3-0.8,6.5
		C34,54.1,37.5,61.3,43.1,66.1z"/>
	<path display="inline" fill="#FFFFFF" d="M66.8,59.4C58,61.5,50.5,66,46.6,68.7c4,2.5,8.8,3.9,13.9,3.9c1.7,0,3.4-0.2,5-0.5
		C65.9,70.1,66.7,65.5,66.8,59.4z"/>
</g>
<g display="none">
	<path display="inline" fill="#FFFFFF" d="M66,27.1c-2-2.7-4.3-5.2-6.8-7.4c-1.3,0.1-2.5,0.2-3.7,0.5c-0.9,3.3-1.5,6.7-1.8,10.2
		C58,29.8,62.1,28.7,66,27.1z"/>
	<g display="inline">
		<path fill="#FFFFFF" d="M47.7,30.7c1.3,0,2.7-0.1,4-0.2c0.3-3.4,0.8-6.6,1.6-9.8c-1.5,0.4-2.9,1-4.2,1.6c-1.8,2.7-3.2,5.4-4.3,8.3
			C45.7,30.7,46.7,30.7,47.7,30.7z"/>
		<path fill="#FFFFFF" d="M45.4,24.4c-2.3,1.6-4.3,3.5-5.9,5.6c1,0.2,2.1,0.3,3.1,0.4C43.4,28.4,44.3,26.3,45.4,24.4z"/>
	</g>
	<path display="inline" fill="#FFFFFF" d="M67.9,26.3c2-0.9,3.9-2,5.8-3.1c-3.4-2-7.3-3.2-11.5-3.5C64.3,21.7,66.2,23.9,67.9,26.3z"
		/>
	<path display="inline" fill="#FFFFFF" d="M76,58.5c0-0.3,0-0.7,0-1c0-4.3-0.5-8.5-1.5-12.4c-4.8,1.8-10.1,3.3-15.7,4.3
		c-1.1,0.2-2.2,0.4-3.3,0.5c1.1,4.1,2.7,7.9,4.6,11.5C65.1,59.6,70.4,58.6,76,58.5z"/>
	<g display="inline">
		<path fill="#FFFFFF" d="M58.2,62c-2-3.7-3.6-7.7-4.8-11.9c-3.4,0.4-6.8,0.6-10.1,0.6c-0.1,0-0.2,0-0.3,0c1.3,5.6,3.9,10.7,7.7,15
			C53.2,64.3,55.6,63.1,58.2,62z"/>
		<path fill="#FFFFFF" d="M41,50.8C41,50.8,41,50.7,41,50.8c-2.3-0.1-4.6-0.3-6.7-0.6c1.2,7.8,5.8,14.4,12.2,18.4
			c0.8-0.6,1.7-1.2,2.6-1.8C45.1,62.2,42.3,56.8,41,50.8z"/>
	</g>
	<path display="inline" fill="#FFFFFF" d="M86.1,39.4c-3,1.8-6.3,3.4-9.8,4.9c1.1,4.2,1.6,8.6,1.6,13.2c0,0.3,0,0.7,0,1
		c2,0,3.9,0.2,5.8,0.4c2.1-3.8,3.3-8.1,3.3-12.7C87,43.8,86.7,41.5,86.1,39.4z"/>
	<path display="inline" fill="#FFFFFF" d="M73.9,43.1c-1.5-5.2-3.8-10-6.7-14.3c-4.3,1.8-8.9,3-13.7,3.6c-0.1,2.9,0,5.9,0.3,8.9
		c0.3,2.3,0.7,4.5,1.2,6.7c1.2-0.2,2.3-0.3,3.5-0.5C64,46.4,69.2,44.9,73.9,43.1z"/>
	<g display="inline">
		<path fill="#FFFFFF" d="M53,48.2c-0.5-2.2-0.9-4.4-1.2-6.7c-0.3-3-0.4-6-0.3-9c-1.3,0.1-2.6,0.2-3.8,0.2c-1.2,0-2.4-0.1-3.6-0.1
			c-1.7,5.2-2.2,10.7-1.3,16.2c0.2,0,0.5,0,0.7,0C46.5,48.7,49.8,48.5,53,48.2z"/>
		<path fill="#FFFFFF" d="M42,32.4c-1.3-0.1-2.5-0.3-3.8-0.6c-2.7,4.1-4.2,9.1-4.2,14.4c0,0.7,0,1.3,0.1,2c2.1,0.3,4.3,0.4,6.6,0.5
			C39.8,43.2,40.3,37.6,42,32.4z"/>
	</g>
	<path display="inline" fill="#FFFFFF" d="M75.8,42.3c3.5-1.4,6.8-3.1,9.7-4.9c-1.9-5.4-5.4-9.9-10-13.1c-2.1,1.4-4.2,2.6-6.5,3.6
		C72,32.3,74.3,37.1,75.8,42.3z"/>
	<path display="inline" fill="#FFFFFF" d="M74.8,68.5c0.6-2.6,0.9-5.3,1.1-8c-5.1,0.1-10.1,1-14.7,2.6c1.9,3.1,4.1,6,6.5,8.6
		C70.2,71,72.6,69.9,74.8,68.5z"/>
	<g display="inline">
		<path fill="#FFFFFF" d="M58.4,72.6c0.7,0.1,1.4,0.1,2,0.1c1.7,0,3.3-0.2,4.9-0.5c-2.3-2.5-4.4-5.4-6.2-8.4c-2.5,1-4.8,2.1-7.1,3.5
			C54,69.2,56.1,71,58.4,72.6z"/>
		<path fill="#FFFFFF" d="M50.4,68.3c-0.7,0.4-1.4,0.9-2,1.4c1.8,0.9,3.8,1.7,5.9,2.2C52.9,70.8,51.6,69.6,50.4,68.3z"/>
	</g>
	<path display="inline" fill="#FFFFFF" d="M77.9,60.5c-0.1,2.1-0.4,4.2-0.7,6.3c2.1-1.7,3.9-3.7,5.4-6
		C81.1,60.6,79.5,60.5,77.9,60.5z"/>
</g>
<g>
	<polygon fill="#FFFFFF" points="53.7,63.1 47.4,69.7 45.5,57.3 	"/>
	<polygon fill="#FFFFFF" points="29.8,42.5 89.6,23 45.4,53.5 	"/>
	<g>
		<polygon fill="#FFFFFF" points="92,24.4 67.6,68.1 47.5,55.1 		"/>
	</g>
</g>
<g>
	<path fill="#FFFFFF" d="M82.4,68.9c-0.1,0.6-0.5,0.9-1.2,0.9H78c-0.7,0-1.1-0.4-1.1-1.1v-7l0.1-0.1h5.2c0.1,0.3,0.1,0.5,0.1,0.8
		c0,0.2-0.1,0.6-0.2,0.9h-2.4h-0.8c0,0.3,0,0.6,0,0.9V65c0.3,0,0.6,0,0.8,0h1.8c0.1,0.2,0.1,0.6,0.1,0.8c0,0.2,0,0.5-0.1,0.8h-1.8
		h-0.8v0.9c0,0.3,0,0.5,0,0.9v0c0.3,0,0.6,0,0.9,0h2.8C82.4,68.4,82.4,68.7,82.4,68.9z"/>
	<path fill="#FFFFFF" d="M87.4,63.8c0.3,0,0.6,0,0.9,0.1l0,0.1l-1.7,2.6l1.9,2.9c-0.4,0.3-0.9,0.4-1.3,0.4c-0.5,0-0.7-0.2-1-0.6
		l-0.8-1.2l-1,1.6c-0.2,0.1-0.5,0.1-0.7,0.1c-0.4,0-0.7,0-1-0.1l-0.1-0.1l1.8-2.9L83,64.1c0.4-0.3,0.9-0.4,1.3-0.4
		c0.5,0,0.7,0.2,0.9,0.6l0.6,1l0.9-1.5C86.9,63.8,87.2,63.8,87.4,63.8z"/>
	<path fill="#FFFFFF" d="M92.3,70c-0.4,0-0.8-0.1-1.1-0.3v1.6c0,0.8-0.3,1.1-1,1.1h-0.7l-0.1-0.1v-8.5l0.1-0.1h0.5
		c0.4,0,0.8,0.2,1,0.6c0.4-0.4,1-0.7,1.6-0.7c1.5,0,2.2,1.3,2.2,3.1C94.7,68.8,93.6,70,92.3,70z M91.2,65.6v2.6
		c0.3,0.2,0.6,0.3,0.8,0.3c0.6,0,0.8-0.7,0.8-1.8c0-1.1-0.3-1.6-0.7-1.6C91.8,65.2,91.5,65.3,91.2,65.6z"/>
	<path fill="#FFFFFF" d="M98.4,68.5c0.1,0.3,0.1,0.6,0.1,0.9c0,0.1,0,0.3,0,0.4c-0.4,0.1-0.8,0.1-1.3,0.1c-1.1,0-1.5-0.5-1.5-1.7
		v-7.1l0.1-0.1h0.7c0.7,0,1,0.3,1,1.1v5.8c0,0.4,0.1,0.6,0.5,0.6H98.4z"/>
	<path fill="#FFFFFF" d="M103.7,69.3c-0.5,0.5-1.2,0.7-1.9,0.7c-0.8,0-1.4-0.2-1.9-0.7c-0.6-0.6-0.9-1.4-0.9-2.5
		c0-1,0.2-1.8,0.9-2.5c0.5-0.5,1.2-0.7,1.9-0.7c0.7,0,1.4,0.2,1.9,0.7c0.6,0.6,0.9,1.4,0.9,2.5C104.6,67.9,104.4,68.7,103.7,69.3z
		 M101.8,68.6c0.7,0,0.8-0.8,0.8-1.8c0-1-0.1-1.8-0.8-1.8c-0.7,0-0.9,0.8-0.9,1.8C101,67.8,101.1,68.6,101.8,68.6z"/>
	<path fill="#FFFFFF" d="M105.9,63.8c0.8,0.1,1.3,0.5,1.5,1.1c0.3-0.6,0.7-1.1,1.5-1.1c0.4,0,0.6,0,0.8,0.1c0,0.4-0.2,1.2-0.5,1.8
		c-0.2-0.1-0.4-0.1-0.6-0.1c-0.4,0-0.7,0.2-1,0.6v3.7c-0.3,0-0.6,0.1-0.9,0.1c-0.3,0-0.7,0-0.9-0.1V66c0-0.7-0.3-1.1-0.5-1.2
		C105.4,64.4,105.6,63.9,105.9,63.8z"/>
	<path fill="#FFFFFF" d="M111.8,67.4c0.1,0.6,0.3,1.1,1.1,1.1c0.5,0,1.1-0.2,1.6-0.4c0.3,0.3,0.4,0.7,0.5,1.1
		c-0.6,0.4-1.5,0.7-2.4,0.7c-2.1,0-2.7-1.5-2.7-3.1c0-1.8,0.8-3.2,2.7-3.2c1.6,0,2.5,1.1,2.5,2.5c0,0.5,0,0.8-0.2,1.2H111.8z
		 M111.8,66.2h1.6V66c0-0.6-0.2-1-0.8-1C112,65,111.8,65.4,111.8,66.2z"/>
	<path fill="#FFFFFF" d="M73.7,76c0.4-0.1,0.9-0.3,1.3-0.3c0.9,0,1.2,0.3,1.4,1.4l0.7,4.1c0.2,1.1,0.4,2.4,0.4,3.2
		c0,0.2,0,0.2,0.1,0.2l1.3-8.6c0.5-0.1,1.1-0.1,1.6-0.1c0.5,0,1.2,0,1.6,0.1l1.2,8.4c0,0.2,0.1,0.2,0.2,0.2c0.1-0.9,0.3-2.3,0.5-3.4
		l0.9-5.4c0.4-0.1,0.8-0.1,1.2-0.1c0.4,0,0.9,0.1,1.2,0.2l0.1,0.1l-2.1,10.7c-0.6,0.1-1.5,0.1-2.2,0.1c-0.8,0-1.4-0.1-1.6-1.2
		l-0.5-3.5c-0.2-1.2-0.4-2.7-0.5-3.7h-0.1c-0.1,1-0.3,2.4-0.5,3.7l-0.7,4.5c-0.6,0.1-1.5,0.1-2.1,0.1c-0.8,0-1.4-0.1-1.6-1.2
		L73.7,76z"/>
	<path fill="#FFFFFF" d="M94,86.1c-0.7,0.7-1.6,0.9-2.5,0.9c-1,0-1.9-0.3-2.5-0.9c-0.8-0.8-1.2-1.9-1.2-3.3c0-1.4,0.3-2.4,1.2-3.3
		c0.7-0.7,1.5-0.9,2.5-0.9c1,0,1.9,0.3,2.5,0.9c0.8,0.8,1.2,1.9,1.2,3.3C95.1,84.2,94.8,85.3,94,86.1z M91.4,85.2c1,0,1.1-1,1.1-2.4
		c0-1.3-0.1-2.4-1.1-2.4c-1,0-1.1,1-1.1,2.4C90.3,84.2,90.4,85.2,91.4,85.2z"/>
	<path fill="#FFFFFF" d="M96.8,78.7c1,0.1,1.7,0.6,2,1.5c0.4-0.8,1-1.4,2-1.4c0.5,0,0.7,0.1,1.1,0.1c0,0.6-0.2,1.6-0.6,2.3
		c-0.3-0.1-0.5-0.1-0.8-0.2c-0.6,0-1,0.3-1.3,0.8v5c-0.4,0.1-0.8,0.1-1.2,0.1c-0.4,0-0.9,0-1.2-0.1v-5.2c0-0.9-0.4-1.5-0.6-1.7
		C96.2,79.6,96.5,79,96.8,78.7z"/>
	<path fill="#FFFFFF" d="M106.5,85c0.1,0.4,0.2,0.8,0.2,1.2c0,0.2,0,0.4,0,0.6c-0.5,0.1-1.1,0.2-1.7,0.2c-1.4,0-2-0.7-2-2.2v-9.5
		l0.1-0.1h1c1,0,1.4,0.4,1.4,1.5v7.7c0,0.5,0.2,0.8,0.7,0.8H106.5z"/>
	<path fill="#FFFFFF" d="M110.6,78.7c0.6,0,1,0.1,1.5,0.4v-3.9l0.1-0.1h1c1,0,1.4,0.4,1.4,1.5v8c0,0.5,0.2,1,0.4,1.2
		c-0.1,0.4-0.4,1-0.8,1.3c-0.8,0-1.4-0.4-1.7-0.9c-0.6,0.6-1.3,1-2.2,1c-2,0-2.9-1.7-2.9-4.1C107.4,80.2,108.8,78.7,110.6,78.7z
		 M112.1,84.4v-3.5c-0.4-0.2-0.7-0.4-1-0.4c-0.8,0-1.1,0.9-1.1,2.4c0,1.5,0.4,2.1,1,2.1C111.2,85.1,111.7,84.9,112.1,84.4z"/>
</g>
<text transform="matrix(1 0 0 1 8.9823 16.4997)" display="none"><tspan x="0" y="0" display="inline" fill="#FFFFFF" font-family="'Signika-Bold'" font-size="12">Explore</tspan><tspan x="39.9" y="0" display="inline" fill="#FFFFFF" font-family="'Signika-Bold'" font-size="10"> the </tspan><tspan x="58.4" y="0" display="inline" fill="#FFFFFF" font-family="'Signika-Bold'" font-size="16">World</tspan></text>
<g>
	<path fill="#FFFFFF" d="M118.4,2v88.3H2V2H118.4 M120.4,0H0v92.3h120.4V0L120.4,0z"/>
</g>
</svg>
