<?xml version="1.0" encoding="utf-8"?>
<!-- Generator: Adobe Illustrator 18.0.0, SVG Export Plug-In . SVG Version: 6.00 Build 0)  -->
<!DOCTYPE svg PUBLIC "-//W3C//DTD SVG 1.1//EN" "http://www.w3.org/Graphics/SVG/1.1/DTD/svg11.dtd">
<svg version="1.1" id="Layer_1" xmlns="http://www.w3.org/2000/svg" xmlns:xlink="http://www.w3.org/1999/xlink" x="0px" y="0px"
	 viewBox="0 0 119 92.3" enable-background="new 0 0 119 92.3" xml:space="preserve">
<polygon fill="#F37651" points="0,0 0,92.3 37.6,92.3 81.5,92.3 119,92.3 119,0 "/>
<polygon fill="#9F4C3A" points="119,92.3 119,32.8 71.9,9.8 45,80.1 57.5,92.3 "/>
<g>
	<g>
		
			<rect x="31.8" y="18.4" transform="matrix(0.9132 -0.4075 0.4075 0.9132 -13.2572 27.7236)" fill="#FFFFFF" width="53.2" height="53.2"/>
		
			<rect x="36.5" y="23.1" transform="matrix(0.9132 -0.4075 0.4075 0.9132 -13.2572 27.7236)" fill="#F37651" width="43.8" height="43.8"/>
		<polygon fill="#FFFFFF" points="87.4,56 74,62 68.1,48.8 54.5,54.8 41.5,60.6 37.5,51.7 33.5,42.8 29.5,33.9 42.7,28 56.1,22.1 
			69.5,16.1 73.5,25 77.5,34 		"/>
		
			<rect x="54.4" y="52.3" transform="matrix(0.9141 -0.4055 0.4055 0.9141 -18.864 30.1232)" fill="#FFFFFF" width="14.5" height="14.5"/>
		<path fill="#F37651" d="M46.7,75.5L27.9,33.3l42.3-18.9L89,56.7L46.7,75.5z M31.2,34.5L48,72.2l37.7-16.8L68.9,17.7L31.2,34.5z"/>
		
			<rect x="34" y="40.6" transform="matrix(0.4025 0.9154 -0.9154 0.4025 66.9663 -19.7811)" fill="#F37651" width="29.3" height="1.7"/>
		
			<rect x="43.1" y="41.2" transform="matrix(0.4095 0.9123 -0.9123 0.4095 76.7557 -34.501)" fill="#F37651" width="43.8" height="1.7"/>
		
			<rect x="60.6" y="29.8" transform="matrix(0.405 0.9143 -0.9143 0.405 83.8401 -25.4155)" fill="#F37651" width="1.7" height="43.8"/>
		
			<rect x="54.6" y="16.4" transform="matrix(0.4051 0.9143 -0.9143 0.4051 67.9957 -27.9261)" fill="#F37651" width="1.7" height="43.8"/>
	</g>
</g>
<polygon display="none" fill="#9F4C3A" points="119,92.3 119,27.5 85.3,16.5 91.5,31.8 39,72.7 32,74.6 65.2,92.3 "/>
<g display="none">
	<g display="inline">
		<g>
			<g>
				<path fill="#FFFFFF" d="M36.8,57.9c0.5,0,1.1,0,1.5,0c1.6,0,1.9,1.3,1.9,2.2c0,0.9-0.4,2.2-1.9,2.2c-0.3,0-0.9,0-1.5,0
					L36.8,57.9z M42.6,60.2c0-2.7-1.7-4.1-4.2-4.1c-1.3,0-2.5,0-3.9,0l-0.1,0.1L34.3,68c0.4,0.1,0.9,0.1,1.2,0.1
					c0.3,0,0.8,0,1.2-0.1l0.1-4l1.6,0C40.8,64.2,42.6,62.8,42.6,60.2"/>
				<path fill="#FFFFFF" d="M35.6,68.5l-0.2,0c-0.2,0-0.8,0-1.3-0.1l-0.3-0.1L34.1,56l0.4-0.3l0.7,0c1.2,0,2.3,0,3.4,0
					c2.9,0,4.6,1.7,4.5,4.5c0,2.7-1.8,4.3-4.6,4.3c0,0,0,0,0,0l-1.4,0L37,68.4l-0.3,0.1C36.4,68.5,35.9,68.5,35.6,68.5z M34.7,67.7
					c0.3,0,0.7,0,0.8,0l0.1,0c0.2,0,0.5,0,0.7,0l0.1-4l2.1,0c2.3,0,3.8-1.3,3.8-3.6c0-2.3-1.3-3.7-3.8-3.7c-1.1,0-2.2,0-3.4,0
					l-0.3,0L34.7,67.7z M36.4,62.7l0.1-5.2l0.4,0c0.5,0,1,0,1.5,0c1.1,0,1.6,0.5,1.9,0.9c0.3,0.5,0.4,1.2,0.4,1.7
					c0,1.6-0.9,2.5-2.3,2.5l-0.2,0c-0.3,0-0.8,0-1.3,0L36.4,62.7z M37.2,58.3l-0.1,3.7c0.3,0,0.7,0,0.9,0l0.2,0c0,0,0,0,0,0
					c1,0,1.5-0.6,1.6-1.8c0-0.4,0-0.9-0.3-1.2c-0.2-0.4-0.6-0.6-1.2-0.6C38,58.3,37.6,58.3,37.2,58.3z"/>
			</g>
			<g>
				<path fill="#FFFFFF" d="M53.1,53.4c-0.5,0-1.1,0-1.6,0l0.1-8.6c0-1-0.4-1.5-1.4-1.5l-0.9,0l-0.1,0.1L49.1,54
					c0,0.9,0.5,1.4,1.4,1.4l4.3,0.1c0.9,0,1.4-0.4,1.6-1.1c0.1-0.3,0.1-0.6,0.1-0.9L53.1,53.4z"/>
				<path fill="#FFFFFF" d="M54.8,55.8L54.8,55.8L54.8,55.8l-4.4-0.1c-1.1,0-1.8-0.7-1.7-1.8l0.2-10.7l0.4-0.3l1,0
					c0.6,0,1,0.2,1.3,0.5c0.3,0.3,0.4,0.8,0.4,1.4L51.9,53c0.3,0,0.6,0,0.9,0l4,0.1l0,0.4c0,0.2,0,0.6-0.1,1
					C56.5,55.3,55.9,55.8,54.8,55.8z M49.6,43.7L49.4,54c0,0.6,0.4,1,1,1l4.3,0.1l0,0.4v-0.4c0.7,0,1.1-0.3,1.2-0.8
					c0-0.1,0-0.3,0.1-0.4l-3.2,0c-0.4,0-0.8,0-1.3,0l-0.4,0l0.1-9c0-0.4-0.1-0.7-0.2-0.9c-0.1-0.2-0.4-0.2-0.8-0.2L49.6,43.7z"/>
			</g>
			<g>
				<path fill="#FFFFFF" d="M64.6,37.4c0.2-0.8,0.6-2,0.8-2.9l0.1,0c0.3,1,0.6,2.4,0.9,3.4l0.5,1.8c-0.2,0-0.6,0-0.7,0l-1.5,0
					c-0.2,0-0.6,0-0.8,0L64.6,37.4z M64.1,41.5l2.5,0c0.2,0,0.6,0,0.9,0l0.5,1.6c0.3,1,0.6,1.3,1.4,1.3c0.5,0,1-0.1,1.4-0.3L67,32.3
					c-0.4-0.1-1-0.1-1.4-0.1c-0.4,0-1,0-1.4,0.1l-4.2,11.7l0.1,0.1c0.3,0.1,0.8,0.2,1.1,0.2c0.4,0,0.7,0,1-0.1l0.9-2.7
					C63.5,41.4,63.9,41.5,64.1,41.5"/>
				<path fill="#FFFFFF" d="M69.4,44.7L69.4,44.7c-1,0-1.5-0.4-1.8-1.6l-0.4-1.3l-0.5,0l-2.6,0c-0.1,0-0.4,0-0.6,0l-0.9,2.6l-0.2,0
					c-0.3,0.1-0.6,0.1-1,0.1l-0.2,0c-0.4,0-0.9-0.1-1.3-0.2l-0.1,0L59.7,44L64,31.9l0.2,0c0.4,0,0.9-0.1,1.3-0.1l0.1,0
					c0.4,0,1.1,0.1,1.4,0.1l0.2,0l3.9,12.3l-0.3,0.2C70.5,44.7,69.9,44.7,69.4,44.7z M67.3,41.1l0.4,0l0.6,1.9c0.2,0.9,0.5,1,1,1
					l0,0.4V44c0.3,0,0.6,0,0.9-0.1l-3.5-11.2c-0.3,0-0.8-0.1-1.1-0.1l-0.1,0c-0.3,0-0.7,0-1,0l-4,11.1c0.2,0,0.5,0.1,0.8,0.1l0.1,0
					c0.2,0,0.4,0,0.6,0L63,41l0.3,0c0.3,0,0.7,0,0.9,0l2.5,0L67.3,41.1z M67.4,40l-0.5,0c-0.1,0-0.3,0-0.5,0c-0.1,0-0.2,0-0.3,0
					l-1.5,0l-0.1-0.4V40L64,40l-0.6,0l1-3c0.2-0.8,0.6-1.9,0.7-2.6l0.1-0.3l0.7,0l0.1,0.3c0.2,0.9,0.5,2.1,0.9,3.4L67.4,40z
					 M64.6,39.2l1.6,0c0.1,0,0.1,0,0.2,0L66.1,38c-0.1-0.4-0.4-1.3-0.6-2.2c-0.1,0.5-0.3,1-0.4,1.4l-0.1,0.3l-0.6,1.7L64.6,39.2z"/>
			</g>
			<g>
				<path fill="#FFFFFF" d="M80.5,26.8c-0.3,0.7-0.6,1.6-0.9,2.4l-0.1,0c-0.2-0.8-0.5-1.7-0.7-2.3l-1.1-2.7c-0.3-0.7-0.6-1-1.3-1
					c-0.5,0-1,0.1-1.5,0.4l3.3,7.9l-0.1,3.8c0.4,0.1,0.9,0.1,1.2,0.1c0.4,0,0.8,0,1.2-0.1l0.1-3.7l3.5-7.9l-0.1-0.1
					c-0.3-0.1-0.8-0.2-1.2-0.2c-0.3,0-0.7,0-1,0.1L80.5,26.8z"/>
				<path fill="#FFFFFF" d="M79.6,35.7l-0.2,0c-0.2,0-0.8,0-1.3-0.1l-0.3-0.1l0.1-4l-3.4-8.1l0.3-0.2c0.5-0.3,1.1-0.4,1.6-0.4
					c1,0,1.4,0.6,1.6,1.2l1.1,2.7c0.2,0.4,0.3,0.9,0.5,1.3c0.2-0.6,0.4-1.1,0.5-1.4l1.5-3.6l0.2,0c0.3-0.1,0.6-0.1,0.9-0.1l0.1,0
					c0.5,0,0.9,0.1,1.3,0.2l0.1,0l0.3,0.4l-3.6,8L81,35.6l-0.3,0.1C80.4,35.7,80,35.7,79.6,35.7z M78.6,34.9c0.3,0,0.6,0,0.8,0
					l0.2,0c0.2,0,0.5,0,0.7,0l0.1-3.5l3.4-7.6c-0.2,0-0.5-0.1-0.8-0.1l-0.1,0c-0.2,0-0.4,0-0.6,0L80.8,27c-0.2,0.4-0.6,1.5-0.9,2.3
					l-0.1,0.3l-0.7,0l-0.1-0.3c-0.2-0.7-0.4-1.5-0.7-2.3l-1.1-2.7c-0.3-0.6-0.5-0.7-0.9-0.8h0c-0.3,0-0.7,0.1-1,0.2l3.2,7.6
					L78.6,34.9z"/>
			</g>
		</g>
	</g>
</g>
<path display="none" fill="#FFFFFF" d="M80.1,19.3c2.7,0,5.4,1.2,7.1,3.5v0c3,3.9,2.3,9.6-1.7,12.6L41.1,69.4
	c-1.6,1.2-3.5,1.8-5.4,1.8c-2.7,0-5.4-1.2-7.1-3.5c-3-3.9-2.3-9.6,1.7-12.6l44.4-34.1C76.2,19.9,78.2,19.3,80.1,19.3 M80.1,15.5
	L80.1,15.5c-2.8,0-5.5,0.9-7.8,2.6L27.9,52.2c-5.6,4.3-6.6,12.3-2.4,17.9c2.4,3.2,6.1,5,10.2,5c2.8,0,5.5-0.9,7.8-2.6l44.4-34.1
	c2.7-2.1,4.4-5.1,4.9-8.5c0.4-3.4-0.4-6.7-2.5-9.4C87.8,17.3,84.1,15.5,80.1,15.5L80.1,15.5z"/>
</svg>
