<?xml version="1.0" encoding="utf-8"?>
<!-- Generator: Adobe Illustrator 18.0.0, SVG Export Plug-In . SVG Version: 6.00 Build 0)  -->
<!DOCTYPE svg PUBLIC "-//W3C//DTD SVG 1.1//EN" "http://www.w3.org/Graphics/SVG/1.1/DTD/svg11.dtd">
<svg version="1.1" id="Layer_1" xmlns="http://www.w3.org/2000/svg" xmlns:xlink="http://www.w3.org/1999/xlink" x="0px" y="0px"
	 viewBox="0 0 119 92.3" enable-background="new 0 0 119 92.3" xml:space="preserve">
<g id="game_x5F_icon">
	<g>
		<polygon fill="#F37651" points="0,0 0,92.3 37.6,92.3 81.5,92.3 119,92.3 119,0 		"/>
		<polygon fill="#9F4C3A" points="119,92.3 119,32.8 70.2,18.1 28,55.4 65.2,92.3 		"/>
		<path fill="#FFFFFF" d="M46.1,15.6l-6.4,13.9c0,0,6.9,1.8,4,7.8c0,0-2.3,5.6-8.6,2.2L28,55.4l15.3,7c0,0,2.1-7,7.8-5
			c0,0,6,2.1,1.7,9.3l14.8,6.8l6.8-14.8l11.5-25L72,27.3c0,0,3.9-6.2-1.8-9.2c0,0-6.4-3-8.9,4.4L46.1,15.6z"/>
	</g>
</g>
<g id="Layer_1_1_">
</g>
<g>
	<path fill="#FFFFFF" d="M95.1,71h-0.9v2.6c-0.3,0.1-0.7,0.1-1,0.1c-0.2,0-0.6,0-1-0.1v-8.1l0.1-0.1c1,0,1.9,0,2.8,0
		c1.7,0,2.9,0.9,2.9,2.9C98.1,70.1,96.8,71,95.1,71z M94.2,69.6c0.3,0,0.7,0,0.8,0c0.9,0,1.1-0.8,1.1-1.4c0-0.6-0.2-1.4-1.1-1.4
		c-0.3,0-0.5,0-0.8,0V69.6z"/>
	<path fill="#FFFFFF" d="M101.8,72.2c0.1,0.3,0.1,0.6,0.1,0.9c0,0.1,0,0.3,0,0.4c-0.4,0.1-0.8,0.1-1.3,0.1c-1.1,0-1.5-0.5-1.5-1.7
		v-7.1l0.1-0.1h0.7c0.7,0,1,0.3,1,1.1v5.8c0,0.4,0.1,0.6,0.5,0.6H101.8z"/>
	<path fill="#FFFFFF" d="M107.4,73.7c-0.6,0-1-0.3-1.3-0.6c-0.4,0.4-1,0.7-1.8,0.7c-1.2,0-1.8-1-1.8-1.8c0-1.4,1.1-2.1,2.4-2.1
		c0.2,0,0.5,0,0.9,0v-0.2c0-0.5-0.2-0.8-0.8-0.8c-0.5,0-1.1,0.2-1.8,0.4c-0.3-0.3-0.4-0.8-0.5-1.3c0.8-0.3,2-0.5,2.7-0.5
		c1,0,2.1,0.5,2.1,2.1V72c0,0.3,0.1,0.6,0.3,0.8C107.9,73.1,107.6,73.5,107.4,73.7z M105.8,72.1v-1c-0.2,0-0.5,0-0.6,0
		c-0.5,0-0.8,0.3-0.8,0.8c0,0.3,0.2,0.6,0.6,0.6C105.2,72.4,105.5,72.3,105.8,72.1z"/>
	<path fill="#FFFFFF" d="M112.6,73.5c-0.4,1.6-1.1,2.8-3,2.8c-0.5,0-1.1-0.1-1.5-0.2c0-0.4,0.1-1.1,0.4-1.3c0.3,0.1,0.7,0.2,1.1,0.2
		c0.6,0,1-0.4,1.2-1l0-0.2c-0.6,0-1.1-0.2-1.2-0.8l-1.4-5.2c0.4-0.2,0.8-0.3,1.2-0.3c0.5,0,0.8,0.2,0.9,0.8l0.6,2.3
		c0.1,0.4,0.2,1.2,0.3,1.6c0,0.1,0,0.1,0.1,0.1l1-4.7c0.2-0.1,0.5-0.1,0.7-0.1c0.3,0,0.7,0,1,0.1l0.1,0.1L112.6,73.5z"/>
	<path fill="#FFFFFF" d="M75.5,80.4c1.3,0,1.7,0.7,1.7,1.6v4.2c-0.9,0.3-2.5,0.7-4.2,0.7c-3.3,0-4.8-2.2-4.8-5.6
		c0-3.9,2.5-5.8,5-5.8c1.6,0,2.9,0.5,4,1.2c0,0.7-0.6,1.5-1.1,1.8c-0.8-0.5-1.8-0.9-2.7-0.9c-1.6,0-2.6,1.1-2.6,3.7
		c0,2.5,1,3.6,2.7,3.6c0.5,0,1,0,1.4-0.1v-1.1c0-0.3,0-0.7,0-1.1H74c-0.8,0-1.2-0.3-1.2-1.1c0-0.3,0.1-0.8,0.2-1.1L75.5,80.4z"/>
	<path fill="#FFFFFF" d="M85,86.7c-0.8,0-1.4-0.4-1.7-0.8c-0.6,0.5-1.3,1-2.3,1c-1.6,0-2.4-1.3-2.4-2.4c0-1.9,1.5-2.8,3.2-2.8
		c0.3,0,0.7,0,1.1,0v-0.3c0-0.7-0.3-1-1-1c-0.7,0-1.5,0.3-2.4,0.5c-0.4-0.4-0.5-1.1-0.6-1.7c1.1-0.4,2.6-0.7,3.7-0.7
		c1.4,0,2.8,0.7,2.8,2.7v3.2c0,0.5,0.1,0.8,0.4,1C85.6,85.9,85.3,86.5,85,86.7z M82.8,84.5v-1.3c-0.3,0-0.6,0-0.9,0
		c-0.7,0-1,0.4-1,1c0,0.4,0.3,0.8,0.7,0.8C82,85,82.4,84.8,82.8,84.5z"/>
	<path fill="#FFFFFF" d="M90.7,80.7c-0.3,0-0.7,0.2-1.1,0.5v5.3c-0.4,0.1-0.8,0.1-1.2,0.1c-0.4,0-0.9,0-1.2-0.1v-8l0.1-0.1h0.9
		c0.7,0,1.1,0.4,1.3,1c0.6-0.6,1.4-1,2.2-1c0.9,0,1.5,0.4,1.9,1.1c0.7-0.6,1.6-1.1,2.5-1.1c1.4,0,2.1,1.1,2.1,2.5v3.6
		c0,0.6,0.1,1.2,0.4,1.6c-0.4,0.3-0.9,0.5-1.6,0.5c-1,0-1.3-0.5-1.3-1.6v-3.4c0-0.8-0.4-1.1-0.8-1.1c-0.3,0-0.7,0.2-1,0.6v5.3
		c-0.4,0.1-0.8,0.1-1.3,0.1c-0.4,0-0.9,0-1.2-0.1v-4.8C91.4,80.9,91.1,80.7,90.7,80.7z"/>
	<path fill="#FFFFFF" d="M102.1,83.4c0.1,0.9,0.4,1.5,1.4,1.5c0.7,0,1.4-0.2,2.1-0.5c0.4,0.4,0.6,1,0.7,1.5c-0.8,0.6-2,0.9-3.1,0.9
		c-2.8,0-3.6-2.1-3.6-4.2c0-2.4,1-4.3,3.6-4.3c2.1,0,3.3,1.5,3.3,3.4c0,0.7,0,1.1-0.2,1.6H102.1z M102.1,81.7h2.1v-0.2
		c0-0.7-0.3-1.4-1.1-1.4C102.5,80.2,102.2,80.7,102.1,81.7z"/>
	<path fill="#FFFFFF" d="M108.1,84.4c0.7,0.4,1.6,0.7,2.2,0.7c0.6,0,0.9-0.2,0.9-0.6c0-0.3-0.2-0.5-0.7-0.7l-0.9-0.3
		c-1.1-0.4-2-1.1-2-2.4c0-1.6,1.2-2.6,3.1-2.6c1,0,2.2,0.3,2.9,0.7c0,0.6-0.3,1.4-0.7,1.7c-0.7-0.3-1.5-0.6-2.2-0.6
		c-0.4,0-0.7,0.2-0.7,0.5c0,0.3,0.2,0.4,0.6,0.6l1,0.4c1.2,0.4,2.1,1.2,2.1,2.6c0,1.6-1.3,2.6-3.2,2.6c-1.2,0-2.4-0.4-3.2-0.8
		C107.4,85.5,107.7,84.8,108.1,84.4z"/>
</g>
<g>
	<path fill="#FFFFFF" d="M117,2v88.3H2V2H117 M119,0H0v92.3h119V0L119,0z"/>
</g>
</svg>
