<?xml version="1.0" encoding="iso-8859-1"?>
<!-- Generator: Adobe Illustrator 17.0.0, SVG Export Plug-In . SVG Version: 6.00 Build 0)  -->
<!DOCTYPE svg PUBLIC "-//W3C//DTD SVG 1.1//EN" "http://www.w3.org/Graphics/SVG/1.1/DTD/svg11.dtd">
<svg version="1.1" xmlns="http://www.w3.org/2000/svg" xmlns:xlink="http://www.w3.org/1999/xlink" x="0px" y="0px"
	 width="119.038px" height="92.316px" viewBox="0 0 119.038 92.316" style="enable-background:new 0 0 119.038 92.316;"
	 xml:space="preserve">
<g id="game_x5F_icon">
	<g>
		<polygon style="fill-rule:evenodd;clip-rule:evenodd;fill:#F37651;" points="0,0 0,92.316 37.569,92.316 81.469,92.316 
			119.038,92.316 119.038,0 		"/>
		<polygon style="fill:#9F4C3A;" points="119.038,92.316 119.038,32.835 71.231,17.304 25.69,57.547 65.233,92.316 		"/>
		<path style="fill:#FFFFFF;" d="M45.3,14.571l-6.853,15.013c0,0,7.463,1.894,4.337,8.432c0,0-2.431,6.063-9.269,2.375L25.69,57.547
			l16.506,7.531c0,0,2.254-7.582,8.42-5.384c0,0,6.494,2.253,1.861,10.075l15.975,7.292l7.292-15.978l12.35-26.988L73.18,27.265
			c0,0,4.185-6.691-1.948-9.961c0,0-6.854-3.271-9.592,4.692L45.3,14.571z"/>
	</g>
</g>
<g id="Layer_1">
</g>
</svg>
