<?xml version="1.0" encoding="iso-8859-1"?>
<!-- Generator: Adobe Illustrator 17.0.0, SVG Export Plug-In . SVG Version: 6.00 Build 0)  -->
<!DOCTYPE svg PUBLIC "-//W3C//DTD SVG 1.1//EN" "http://www.w3.org/Graphics/SVG/1.1/DTD/svg11.dtd">
<svg version="1.1" xmlns="http://www.w3.org/2000/svg" xmlns:xlink="http://www.w3.org/1999/xlink" x="0px" y="0px"
	 width="120.424px" height="92.316px" viewBox="0 0 120.424 92.316" style="enable-background:new 0 0 120.424 92.316;"
	 xml:space="preserve">
<g id="learn_x5F_icon">
	<g>
		<polygon style="fill-rule:evenodd;clip-rule:evenodd;fill:#986E99;" points="120.424,0 0,0 0,92.316 35.141,92.316 79.039,92.316 
			120.424,92.316 		"/>
		<polygon style="fill:#6A3B6D;" points="43.111,67.155 44.398,73.476 64.801,92.316 120.271,92.316 120.271,40.371 58.841,16.867 
			43.111,24.825 59.565,27.351 58.447,35.006 		"/>
		<g>
			<path style="fill:#FFFFFF;" d="M53.711,16.182c11.125,0,16.934,6.3,16.934,14.972c0,8.181-4.582,13.008-10.717,16.198
				l-4.909,2.618l-0.817,6.218c-1.473,0.491-3.108,0.654-4.664,0.654c-1.472,0-3.354-0.163-4.908-0.654l-0.736-12.189l0.982-1.228
				l4.582-2.045c4.417-2.127,7.854-4.5,7.854-8.182c0-3.191-2.209-5.399-6.464-5.399c-3.353,0-6.545,1.309-9.325,2.945
				c-2.455-1.8-4.5-5.89-4.664-9.163C41.439,18.227,47.247,16.182,53.711,16.182z M55.51,63.55c0.654,1.063,0.982,3.354,0.982,4.908
				c0,1.473-0.328,3.682-0.982,4.745c-1.472,0.9-3.763,1.31-5.973,1.31c-2.209,0-4.498-0.41-6.135-1.31
				c-0.491-1.063-0.818-3.272-0.818-4.745c0-1.554,0.327-3.845,0.818-4.908c1.637-0.818,3.926-1.309,6.135-1.309
				C51.747,62.241,54.038,62.732,55.51,63.55z"/>
		</g>
	</g>
</g>
<g id="Layer_1">
</g>
</svg>
