<?xml version="1.0" encoding="utf-8"?>
<!-- Generator: Adobe Illustrator 17.1.0, SVG Export Plug-In . SVG Version: 6.00 Build 0)  -->
<!DOCTYPE svg PUBLIC "-//W3C//DTD SVG 1.1//EN" "http://www.w3.org/Graphics/SVG/1.1/DTD/svg11.dtd">
<svg version="1.1" id="Layer_1" xmlns="http://www.w3.org/2000/svg" xmlns:xlink="http://www.w3.org/1999/xlink" x="0px" y="0px"
	 viewBox="0 0 296 340" enable-background="new 0 0 296 340" xml:space="preserve">
<g>
	<path fill="#E7903B" d="M1,249C1,172.3,1,95.7,1,19C3.5,9.5,9.5,3.5,19,1c86.7,0,173.3,0,260,0c2.5,1.1,5.1,2,7.6,3.2
		c6.1,3,8.1,9,10.4,14.8c0,76.3,0,152.7,0,229c-5.8,15.9-10.4,19-27.9,19c-26.7,0-53.3-0.1-79.9,0.2c-3.7,0-7.8,1.4-11,3.4
		c-9.7,5.9-14.5,15.9-17.9,26.1c-3.7,11.3-5.6,23.2-8.3,34.9c-0.7,2.9-1.5,5.7-2.2,8.6c-1.8-1.2-2.5-2.3-2.7-3.5
		c-1.1-5.3-2.2-10.6-3-16c-2.3-15.2-7.2-29.4-16.4-41.9c-5.5-7.5-12.2-12.2-22.5-12c-25.6,0.6-51.3,0-76.9,0.3
		C14.5,267.2,5.5,263.9,1,249z"/>
</g>
<path fill="#FFFFFF" d="M169.8,59.7c0-11.3,9.2-20.5,20.5-20.5s20.5,9.2,20.5,20.5s-9.2,20.5-20.5,20.5S169.8,71,169.8,59.7z
	 M115.6,150l-10.7,14.8H66.3c-5.8,0-11.5,4.9-11.5,10.7c0,6.6,4.9,11.5,11.5,11.5h45.2c4.1,0,7.4-1.6,9.9-5.7l10.7-15.6
	C131.2,165.7,116.4,155.8,115.6,150z M228.2,127.9l-30.4-7.4l-9-27.9c-0.2-0.6-0.6-1.1-0.9-1.6c-0.5-1.4-1.4-2.8-3.2-4.2l-13.5-9
	c-1-1.1-2.2-2-3.7-2.5l-31.2-10.7c-2.5-0.8-5.7-0.8-7.4,0L93.4,83.5c-4.9,2.5-6.6,8.2-4.1,12.3c1.6,3.3,4.1,4.9,7.4,4.9
	c1.6,0,3.3,0,4.9-0.8l32-16.4l18.9,6.7l-24.7,37.7c-4.6,8-7,15.9-2.2,22.1c0.9,1.6,2,3.1,3.8,4.2l31.2,23l-18.9,41.9
	c-2.5,5.7,0,12.3,5.8,14.8c1.6,0.8,3.3,0.8,4.9,0.8c4.1,0,8.2-2.5,9.9-6.6l22.2-50.9c2.5-4.1,0.8-9.9-3.3-13.1l-24.4-17.8l19.7-32
	l5.5,17c0.8,3.3,3.3,5.8,6.6,6.6l35.3,9h0.8c4.9,0.8,9-2.5,9.9-7.4C236.4,133.6,233.1,128.7,228.2,127.9z"/>
</svg>
