<?xml version="1.0" encoding="utf-8"?>
<!-- Generator: Adobe Illustrator 17.1.0, SVG Export Plug-In . SVG Version: 6.00 Build 0)  -->
<!DOCTYPE svg PUBLIC "-//W3C//DTD SVG 1.1//EN" "http://www.w3.org/Graphics/SVG/1.1/DTD/svg11.dtd">
<svg version="1.1" id="Layer_1" xmlns="http://www.w3.org/2000/svg" xmlns:xlink="http://www.w3.org/1999/xlink" x="0px" y="0px"
	 viewBox="710 1 261.9 235.7" enable-background="new 710 1 261.9 235.7" xml:space="preserve">
<g>
	<path fill="#E7903B" d="M710,220.4c0-67.9,0-135.7,0-203.5c2.2-8.4,7.5-13.7,15.9-15.9C802.6,1,879.2,1,956,1
		c2.2,1,4.5,1.8,6.7,2.8c5.4,2.6,7.1,7.9,9.2,13.1c0,67.5,0,135.1,0,202.7c-5.1,14-9.2,16.9-24.7,16.9c-23.7,0-47.1-0.1-70.7,0.2
		c-3.3,0-65.2-0.5-74.3-0.3c-22.7,0.5-45.4,0-68.1,0.3C721.8,236.5,714,233.6,710,220.4z"/>
</g>
<path fill="#FFFFFF" d="M861.8,50.5c0-10,8.1-18.1,18.1-18.1S898,40.5,898,50.5s-8.1,18.1-18.1,18.1S861.8,60.4,861.8,50.5z
	 M814,130.1l-9.4,13.1h-34.1c-5.1,0-10.1,4.3-10.1,9.4c0,5.8,4.3,10.1,10.1,10.1h39.9c3.6,0,6.5-1.4,8.7-5l9.4-13.8
	C827.8,144,814.7,135.2,814,130.1z M913.3,110.6l-26.8-6.5l-7.9-24.6c-0.2-0.5-0.5-1-0.8-1.4c-0.4-1.2-1.2-2.5-2.8-3.7l-12-8
	c-0.9-1-1.9-1.8-3.3-2.2l-27.5-9.4c-2.2-0.7-5-0.7-6.5,0l-31.3,16.7c-4.3,2.2-5.8,7.2-3.6,10.9c1.4,2.9,3.6,4.3,6.5,4.3
	c1.4,0,2.9,0,4.3-0.7l28.2-14.5l16.7,5.9l-21.8,33.3c-4.1,7.1-6.2,14-1.9,19.5c0.8,1.4,1.8,2.7,3.4,3.7l27.5,20.3l-16.7,37
	c-2.2,5,0,10.9,5.1,13.1c1.4,0.7,2.9,0.7,4.3,0.7c3.6,0,7.2-2.2,8.7-5.8l19.6-44.9c2.2-3.6,0.7-8.7-2.9-11.6L850.3,127l17.4-28.2
	l4.9,15c0.7,2.9,2.9,5.1,5.8,5.8l31.1,7.9h0.7c4.3,0.7,7.9-2.2,8.7-6.5C920.6,115.7,917.7,111.3,913.3,110.6z"/>
</svg>
