<?xml version="1.0" encoding="utf-8"?>
<!-- Generator: Adobe Illustrator 18.0.0, SVG Export Plug-In . SVG Version: 6.00 Build 0)  -->
<!DOCTYPE svg PUBLIC "-//W3C//DTD SVG 1.1//EN" "http://www.w3.org/Graphics/SVG/1.1/DTD/svg11.dtd">
<svg version="1.1" id="Layer_1" xmlns="http://www.w3.org/2000/svg" xmlns:xlink="http://www.w3.org/1999/xlink" x="0px" y="0px"
	 viewBox="0 0 841.9 595.3" enable-background="new 0 0 841.9 595.3" xml:space="preserve">
<g>
	<path fill="#E7903B" d="M398.8,436.4c0-134.7,0-269.3,0-403.8c4.4-16.7,14.9-27.3,31.6-31.6c152.3,0,304.3,0,456.6,0
		c4.4,2,9,3.6,13.3,5.6c10.7,5.2,14.1,15.7,18.3,26.1c0,133.9,0,268.1,0,402.2c-10.2,27.9-18.3,33.4-49,33.4
		c-47,0-93.5-0.2-140.3,0.4c-6.6,0-129.4-1-147.5-0.6c-45,1-90.2,0-135.1,0.6C422.5,468.4,406.8,462.6,398.8,436.4z"/>
</g>
<rect x="397" y="489.1" fill="none" width="519.9" height="107.1"/>
<g enable-background="new    ">
	<path fill="#DE4653" d="M558.8,538.1c5,3,11.5,5.8,17.9,5.8c5.2,0,7.2-3,7.2-5.8c0-1.8-0.8-4.4-5.6-6.6l-10.3-4.4
		c-7.2-3.2-12.5-7.8-12.5-16.3c0-10.9,9.6-18.3,21.3-18.3c8.4,0,16.1,2.8,20.7,5c-0.2,4-2,8.2-4.8,10.5c-4.4-2.2-11.1-4.4-15.7-4.4
		c-5.2,0-7,3-7,5.2s1.4,4,5.2,5.6l10.5,4.4c8.4,3.8,13.3,9.8,13.3,17.3c0,10.5-7.8,18.7-23.1,18.7c-7.2,0-15.7-2.4-22.3-6.6
		C553.7,544.6,556,540.3,558.8,538.1z"/>
	<path fill="#DE4653" d="M627.7,554.6c-3,0-5.8-0.8-8.2-1.8v11.7c0,6.2-2.2,8.2-7.6,8.2h-5.2l-0.6-0.6V510l0.6-0.6h3.6
		c3.2,0,6,1.6,7.4,4.4c3-3,7.2-5,11.7-5c10.7,0,15.7,9.4,15.7,22.7C645.4,546.2,637.4,554.6,627.7,554.6z M619.7,523.1v19.3
		c2,1.2,4,2,5.8,2c4.2,0,6-5.2,6-13.3c0-8.2-2.2-11.5-5.2-11.5C624.3,519.6,621.9,520.2,619.7,523.1z"/>
	<path fill="#DE4653" d="M685,549.8c-3.8,3.6-8.6,5.2-13.9,5.2c-5.6,0-10.3-1.6-13.9-5.2c-4.6-4.6-6.4-10.3-6.4-18.1
		c0-7.6,1.6-13.3,6.4-17.9c3.6-3.6,8.4-5.2,13.9-5.2c5.4,0,10.3,1.6,13.9,5.2c4.6,4.6,6.4,10.3,6.4,17.9
		C691.4,539.5,689.8,545.2,685,549.8z M671.1,544.6c5.4,0,6.2-5.8,6.2-12.9c0-7.2-0.8-12.9-6.2-12.9c-5.4,0-6.2,5.8-6.2,12.9
		C664.9,539.1,665.7,544.6,671.1,544.6z"/>
	<path fill="#DE4653" d="M700.7,509.2c5.6,0.4,9.2,3.4,11.1,8c2-4.6,5.2-8,10.9-8c2.6,0,4,0.4,5.8,0.8c0,3.2-1.2,9-3.4,12.7
		c-1.6-0.6-3-0.8-4.4-0.8c-3.2,0-5.4,1.6-7.2,4.4v27.3c-2,0.4-4.4,0.6-6.8,0.6c-2.2,0-4.8-0.2-6.8-0.6v-28.3c0-5.2-2-8.2-3.4-9.2
		C697.2,513.8,699.1,510.4,700.7,509.2z"/>
	<path fill="#DE4653" d="M763.6,514.6c0,1.8-0.2,3.4-0.6,5l-10.3-0.2v20.1c0,2.6,1.2,4.2,3.8,4.2h5c0.8,2,1.2,4.4,1.2,6.6
		c0,1,0,2.2-0.4,3c-3.2,0.4-8,0.8-11.3,0.8c-8,0-11.7-3.8-11.7-12.1v-22.5h-6.8c-0.4-1.6-0.6-3.2-0.6-5c0-1.6,0.2-3,0.6-4.8l6.8,0.2
		v-5.2c0-6,2.2-8.2,7.4-8.2h5.4l0.6,0.6v12.7l10.3-0.2C763.4,511.4,763.6,513,763.6,514.6z"/>
</g>
<path fill="#FFFFFF" d="M694.9,97.3c0-20.2,16.3-36.5,36.5-36.5s36.5,16.3,36.5,36.5s-16.3,36.5-36.5,36.5S694.9,117.2,694.9,97.3z
	 M598.6,257.7l-18.9,26.4h-68.7c-10.3,0-20.4,8.7-20.4,18.9c0,11.7,8.7,20.4,20.4,20.4h80.4c7.3,0,13.1-2.8,17.5-10.1l18.9-27.8
	C626.4,285.8,600,268,598.6,257.7z M798.7,218.4l-54-13.1l-15.9-49.6c-0.4-1-1-2-1.6-2.8c-0.8-2.4-2.4-5-5.6-7.5l-24.2-16.1
	c-1.8-2-3.8-3.6-6.7-4.4l-55.4-18.9c-4.4-1.4-10.1-1.4-13.1,0l-63.1,33.7c-8.7,4.4-11.7,14.5-7.3,22c2.8,5.8,7.3,8.7,13.1,8.7
	c2.8,0,5.8,0,8.7-1.4l56.8-29.2l33.7,11.9l-43.9,67.1c-8.3,14.3-12.5,28.2-3.8,39.3c1.6,2.8,3.6,5.4,6.9,7.5l55.4,40.9l-33.7,74.6
	c-4.4,10.1,0,22,10.3,26.4c2.8,1.4,5.8,1.4,8.7,1.4c7.3,0,14.5-4.4,17.5-11.7l39.5-90.5c4.4-7.3,1.4-17.5-5.8-23.4l-43.3-31.6
	l35.1-56.8l9.9,30.2c1.4,5.8,5.8,10.3,11.7,11.7l62.7,15.9h1.4c8.7,1.4,15.9-4.4,17.5-13.1C813.5,228.7,807.6,219.8,798.7,218.4z"/>
</svg>
