<?xml version="1.0" encoding="utf-8"?>
<!-- Generator: Adobe Illustrator 16.0.0, SVG Export Plug-In . SVG Version: 6.00 Build 0)  -->
<!DOCTYPE svg PUBLIC "-//W3C//DTD SVG 1.1//EN" "http://www.w3.org/Graphics/SVG/1.1/DTD/svg11.dtd">
<svg version="1.1" id="Layer_1" xmlns="http://www.w3.org/2000/svg" xmlns:xlink="http://www.w3.org/1999/xlink" x="0px" y="0px"
	 width="99.213px" height="73.701px" viewBox="0 0 99.213 73.701" enable-background="new 0 0 99.213 73.701" xml:space="preserve">
<g>
	<path fill="none" stroke="#000000" stroke-width="6" d="M91.024,16.544c-1.057-4.57-4.811-7.938-9.328-8.441
		C70.997,6.913,60.169,6.169,49.388,6.176C38.606,6.169,27.776,6.913,17.077,8.104c-4.518,0.503-8.27,3.871-9.324,8.441
		c-1.502,6.506-1.52,13.607-1.52,20.307c0,6.699,0,13.8,1.502,20.308c1.055,4.565,4.807,7.938,9.324,8.438
		c10.699,1.191,21.527,1.934,32.311,1.929c10.781,0.005,21.611-0.737,32.309-1.929c4.518-0.501,8.271-3.872,9.326-8.438
		c1.502-6.508,1.514-13.608,1.514-20.308C92.519,30.153,92.526,23.051,91.024,16.544 M64.087,38.839l-20.34,10.996
		c-2.021,1.095-3.678,0.107-3.678-2.19V26.058c0-2.299,1.654-3.286,3.678-2.192l20.34,10.998
		C66.11,35.956,66.11,37.745,64.087,38.839"/>
</g>
</svg>
